<svg width="56" height="41" viewBox="0 0 56 41" fill="none" xmlns="http://www.w3.org/2000/svg">
<path d="M25.6152 13.2754C25.6152 15.4238 25.3955 17.7432 24.9561 20.2334C24.5654 22.6748 23.9062 25.1162 22.9785 27.5576C22.0996 29.9502 20.9277 32.2451 19.4629 34.4424C17.998 36.6396 16.2402 38.4951 14.1895 40.0088L6.2793 34.4424C7.59766 32.8799 8.59863 31.3906 9.28223 29.9746C9.96582 28.5586 10.5029 27.1426 10.8936 25.7266C9.42871 25.4824 8.06152 24.9941 6.79199 24.2617C5.52246 23.5293 4.42383 22.626 3.49609 21.5518C2.61719 20.4287 1.90918 19.1592 1.37207 17.7432C0.834961 16.3271 0.566406 14.8379 0.566406 13.2754C0.566406 11.6152 0.883789 10.0283 1.51855 8.51465C2.20215 7.00098 3.10547 5.68262 4.22852 4.55957C5.40039 3.3877 6.71875 2.48438 8.18359 1.84961C9.69727 1.16602 11.3086 0.824219 13.0176 0.824219C14.7754 0.824219 16.4111 1.16602 17.9248 1.84961C19.4873 2.48438 20.8301 3.3877 21.9531 4.55957C23.0762 5.68262 23.9551 7.00098 24.5898 8.51465C25.2734 10.0283 25.6152 11.6152 25.6152 13.2754ZM55.5713 13.2754C55.5713 15.4238 55.3516 17.7432 54.9121 20.2334C54.5215 22.6748 53.8623 25.1162 52.9346 27.5576C52.0557 29.9502 50.8838 32.2451 49.4189 34.4424C48.0029 36.6396 46.2695 38.4951 44.2188 40.0088L36.2354 34.4424C37.6025 32.8799 38.6279 31.3906 39.3115 29.9746C39.9951 28.5586 40.5322 27.1426 40.9229 25.7266C39.458 25.4824 38.0908 24.9941 36.8213 24.2617C35.5518 23.5293 34.4531 22.626 33.5254 21.5518C32.5977 20.4287 31.8652 19.1592 31.3281 17.7432C30.791 16.3271 30.5225 14.8379 30.5225 13.2754C30.5225 11.6152 30.8398 10.0283 31.4746 8.51465C32.1582 7.00098 33.0615 5.68262 34.1846 4.55957C35.3564 3.3877 36.6748 2.48438 38.1396 1.84961C39.6533 1.16602 41.2646 0.824219 42.9736 0.824219C44.7314 0.824219 46.3672 1.16602 47.8809 1.84961C49.4434 2.48438 50.7861 3.3877 51.9092 4.55957C53.0811 5.68262 53.9844 7.00098 54.6191 8.51465C55.2539 10.0283 55.5713 11.6152 55.5713 13.2754Z" fill="#EA068E"/>
</svg>
