<svg width="80" height="98" viewBox="0 0 80 98" fill="none" xmlns="http://www.w3.org/2000/svg">
<path fill-rule="evenodd" clip-rule="evenodd" d="M22.7263 94.0729L24.3621 83.3543L20.7183 83.2666H3.31836L15.4107 4.16917C15.4484 3.92965 15.5701 3.70731 15.748 3.54914C15.9267 3.39097 16.1545 3.3042 16.3928 3.3042H45.7317C55.4725 3.3042 62.1942 5.39477 65.7031 9.52169C67.3484 11.4577 68.3963 13.4814 68.9035 15.7075C69.4354 18.044 69.4441 20.835 68.9255 24.2398L68.8878 24.4874V26.6693L70.5331 27.631C71.9183 28.3893 73.0196 29.257 73.8642 30.2503C75.2713 31.9061 76.1815 34.0102 76.5662 36.5039C76.9639 39.069 76.8325 42.1222 76.1815 45.5784C75.4307 49.5535 74.2173 53.0161 72.578 55.8487C71.0711 58.459 69.1506 60.6246 66.8701 62.3021C64.6929 63.8965 62.1066 65.1067 59.182 65.8813C56.3478 66.6423 53.1166 67.0265 49.5727 67.0265H47.2895C45.6572 67.0265 44.0715 67.6329 42.8265 68.7203C41.578 69.8302 40.7527 71.3468 40.4995 73.0053L40.3269 73.9706L37.4365 92.8635L37.306 93.5568C37.2709 93.7764 37.2114 93.8858 37.1238 93.9599C37.0458 94.0277 36.9336 94.0729 36.8241 94.0729H22.7263Z" fill="#28356A"/>
<path fill-rule="evenodd" clip-rule="evenodd" d="M72.0895 24.7397C72.0028 25.3173 71.902 25.9075 71.7899 26.514C67.9209 47.0075 54.6835 54.0873 37.7777 54.0873H29.1698C27.1021 54.0873 25.3595 55.6356 25.0379 57.7397L19.3825 94.7473C19.1731 96.1292 20.2052 97.3738 21.5562 97.3738H36.8236C38.6311 97.3738 40.1669 96.019 40.4517 94.1796L40.6015 93.3797L43.4761 74.561L43.6609 73.5288C43.9422 71.6832 45.4815 70.3274 47.289 70.3274H49.5722C64.3638 70.3274 75.9436 64.1325 79.3281 46.204C80.7413 38.7149 80.0097 32.4612 76.2687 28.0632C75.1367 26.7372 73.7323 25.6364 72.0895 24.7397Z" fill="#298FC2"/>
<path fill-rule="evenodd" clip-rule="evenodd" d="M68.04 23.0747C67.4486 22.8966 66.8388 22.7357 66.2132 22.5902C65.5842 22.4483 64.9402 22.3227 64.277 22.2124C61.9561 21.8256 59.4127 21.6421 56.6888 21.6421H33.6931C33.1262 21.6421 32.5883 21.774 32.1073 22.0127C31.0463 22.5387 30.2586 23.5745 30.0676 24.8426L25.1753 56.8076L25.0352 57.7395C25.3567 55.6353 27.0993 54.0871 29.167 54.0871H37.775C54.6807 54.0871 67.9182 47.0037 71.7872 26.5138C71.9028 25.9073 72.0001 25.3171 72.0868 24.7395C71.1082 24.2036 70.048 23.7453 68.9064 23.3549C68.6243 23.2581 68.3335 23.1651 68.04 23.0747Z" fill="#22284F"/>
<path fill-rule="evenodd" clip-rule="evenodd" d="M30.0711 24.8428C30.2621 23.5747 31.0497 22.5389 32.1107 22.0165C32.5952 21.777 33.1296 21.6451 33.6965 21.6451H56.6922C59.4161 21.6451 61.9595 21.8294 64.2804 22.2163C64.9436 22.3256 65.5876 22.4522 66.2166 22.5941C66.8422 22.7387 67.452 22.9005 68.0434 23.0776C68.3369 23.168 68.6277 23.262 68.9125 23.3551C70.0541 23.7456 71.1151 24.2074 72.0937 24.7398C73.2449 17.1665 72.0841 12.0102 68.1152 7.34095C63.7389 2.19994 55.8415 0 45.7354 0H16.3956C14.3314 0 12.5704 1.54827 12.2515 3.65601L0.0312744 83.5668C-0.209661 85.1476 0.972236 86.5739 2.51773 86.5739H20.6308L30.0711 24.8428Z" fill="#28356A"/>
</svg>
