<svg width="112" height="105" viewBox="0 0 112 105" fill="none" xmlns="http://www.w3.org/2000/svg">
<path d="M6.5625 61.25H63.4375L35 43.75L6.5625 61.25Z" stroke="#0BA2E3" stroke-width="3" stroke-linecap="round" stroke-linejoin="round"/>
<path d="M15.3125 61.25V83.125" stroke="#0BA2E3" stroke-width="3" stroke-linecap="round" stroke-linejoin="round"/>
<path d="M28.4375 61.25V83.125" stroke="#0BA2E3" stroke-width="3" stroke-linecap="round" stroke-linejoin="round"/>
<path d="M41.5625 61.25V83.125" stroke="#0BA2E3" stroke-width="3" stroke-linecap="round" stroke-linejoin="round"/>
<path d="M54.6875 61.25V83.125" stroke="#0BA2E3" stroke-width="3" stroke-linecap="round" stroke-linejoin="round"/>
<path d="M8.75 83.125H61.25" stroke="#0BA2E3" stroke-width="3" stroke-linecap="round" stroke-linejoin="round"/>
<path d="M4.375 91.875H65.625" stroke="#0BA2E3" stroke-width="3" stroke-linecap="round" stroke-linejoin="round"/>
<path d="M103.25 46.55H85.7495C83.8245 46.55 82.2495 48.125 82.2495 50.05V55.3H85.7495V51.8H103.25V79.8H85.7495V76.3H82.2495V81.55C82.2495 83.475 83.8245 85.05 85.7495 85.05H103.25C105.175 85.05 106.75 83.475 106.75 81.55V50.05C106.75 48.125 105.175 46.55 103.25 46.55ZM82.267 68.3725L77.8045 63.91L75.582 66.1325L82.2495 72.8L94.832 60.2175L92.6095 57.995L82.267 68.3725Z" fill="#0BA2E3"/>
<path d="M88.6477 41.9696C89.3118 42.4648 90.2516 42.3277 90.7468 41.6636L98.8155 30.8402C99.3106 30.176 99.1736 29.2362 98.5094 28.741C97.8452 28.2459 96.9054 28.3829 96.4103 29.0471L89.2381 38.6679L79.6173 31.4957C78.9531 31.0006 78.0133 31.1376 77.5182 31.8018C77.023 32.466 77.1601 33.4058 77.8243 33.9009L88.6477 41.9696ZM85.8891 30.4715L84.6006 31.2395L85.8891 30.4715ZM68.7077 17.6631L68.3396 19.1172L68.7077 17.6631ZM47.5017 20.7552L48.2696 22.0436L47.5017 20.7552ZM39.3886 28.072L40.5912 28.9685L39.3886 28.072ZM91.0285 40.5506C90.4695 36.7171 89.161 33.0313 87.1776 29.7036L84.6006 31.2395C86.3823 34.2289 87.5578 37.5398 88.0599 40.9835L91.0285 40.5506ZM87.1776 29.7036C85.1941 26.3758 82.5747 23.4713 79.4688 21.1559L77.6757 23.5611C80.4658 25.6411 82.8189 28.2502 84.6006 31.2395L87.1776 29.7036ZM79.4688 21.1559C76.3629 18.8405 72.8313 17.1595 69.0758 16.2089L68.3396 19.1172C71.7133 19.9711 74.8857 21.4812 77.6757 23.5611L79.4688 21.1559ZM69.0758 16.2089C65.3202 15.2583 61.4142 15.0568 57.5807 15.6157L58.0136 18.5843C61.4572 18.0822 64.966 18.2633 68.3396 19.1172L69.0758 16.2089ZM57.5807 15.6157C53.7473 16.1747 50.0614 17.4832 46.7337 19.4667L48.2696 22.0436C51.259 20.2619 54.57 19.0865 58.0136 18.5843L57.5807 15.6157ZM46.7337 19.4667C43.406 21.4501 40.5015 24.0695 38.186 27.1754L40.5912 28.9685C42.6712 26.1784 45.2803 23.8254 48.2696 22.0436L46.7337 19.4667ZM38.186 27.1754C35.8706 30.2813 34.1896 33.8129 33.239 37.5684L36.1473 38.3046C37.0012 34.9309 38.5113 31.7585 40.5912 28.9685L38.186 27.1754Z" fill="#0BA2E3"/>
<g clip-path="url(#clip0_102_1627)">
<rect x="54.6016" y="5.6001" width="14" height="22.4" fill="white"/>
<path d="M61.6016 2.80005C53.8736 2.80005 47.6016 9.07205 47.6016 16.8C47.6016 24.528 53.8736 30.8 61.6016 30.8C69.3296 30.8 75.6016 24.528 75.6016 16.8C75.6016 9.07205 69.3296 2.80005 61.6016 2.80005ZM63.5756 25.326V28H59.8376V25.298C57.4436 24.794 55.4136 23.254 55.2596 20.538H58.0036C58.1436 22.008 59.1516 23.156 61.7136 23.156C64.4576 23.156 65.0736 21.784 65.0736 20.93C65.0736 19.768 64.4576 18.676 61.3356 17.934C57.8636 17.094 55.4836 15.666 55.4836 12.796C55.4836 10.388 57.4296 8.82005 59.8376 8.30205V5.60005H63.5756V8.33005C66.1796 8.96005 67.4816 10.934 67.5656 13.076H64.8216C64.7516 11.522 63.9256 10.458 61.7136 10.458C59.6136 10.458 58.3536 11.41 58.3536 12.754C58.3536 13.93 59.2636 14.7 62.0916 15.428C64.9196 16.156 67.9436 17.374 67.9436 20.902C67.9296 23.464 66.0116 24.864 63.5756 25.326Z" fill="#0BA2E3"/>
</g>
<defs>
<clipPath id="clip0_102_1627">
<rect width="33.6" height="33.6" fill="white" transform="translate(44.8008)"/>
</clipPath>
</defs>
</svg>
