<svg width="70" height="70" viewBox="0 0 70 70" fill="none" xmlns="http://www.w3.org/2000/svg">
<path d="M35.1428 56.0668C23.5146 56.0668 18.2018 50.1432 18.2018 45.7985C18.2002 44.762 18.6256 43.7706 19.3778 43.0576C20.1301 42.3446 21.1428 41.9729 22.1777 42.03C27.1563 42.03 25.854 49.4979 35.1428 49.4979C39.8909 49.4979 42.6798 46.6398 42.6798 43.9546C42.6798 42.3411 41.7579 40.4972 38.6232 39.7596L28.2511 37.1436C19.9189 35.0231 18.4668 30.3902 18.4668 26.0916C18.4668 17.1716 26.6262 13.9447 34.3937 13.9447C41.5504 13.9447 50.0555 17.8976 50.0555 23.245C50.0555 25.5499 48.1309 26.783 45.8952 26.783C41.6426 26.783 42.3571 20.8133 33.806 20.8133C29.5534 20.8133 27.3176 22.8071 27.3176 25.596C27.3176 28.3849 30.6252 29.33 33.5294 29.9638L41.1816 31.6925C49.5715 33.5825 51.8072 38.5035 51.8072 43.217C51.8072 50.4659 46.1948 56.0668 35.1313 56.0668H35.1428ZM67.2501 40.7277C67.5823 38.825 67.7481 36.8969 67.7457 34.9654C67.7863 25.2631 63.5232 16.042 56.1055 9.78789C48.6877 3.53375 38.8788 0.890269 29.3229 2.57002C26.3858 0.878944 23.0545 -0.00752643 19.6654 4.8137e-05C12.7087 0.0425449 6.29632 3.77095 2.81801 9.79576C-0.660301 15.8206 -0.682802 23.2381 2.75889 29.2839C0.838453 39.8361 4.20249 50.6603 11.7659 58.2651C19.3293 65.8699 30.1351 69.2929 40.6976 67.43C43.6312 69.1196 46.9583 70.0061 50.3436 70C57.2968 69.9552 63.7052 66.2284 67.1828 60.2072C70.6604 54.186 70.686 46.7728 67.2501 40.7277Z" fill="white"/>
</svg>
