<svg width="70" height="70" viewBox="0 0 70 70" fill="none" xmlns="http://www.w3.org/2000/svg">
<g clip-path="url(#clip0_97_1786)">
<path d="M0 70L4.94746 52.0342C1.88873 46.7609 0.284145 40.789 0.300859 34.6839C0.300859 15.5537 15.9455 0 35.1504 0C44.477 0 53.2354 3.60979 59.8042 10.164C66.3896 16.7182 70.0167 25.4349 69.9999 34.7006C69.9999 53.8308 54.3553 69.3845 35.1337 69.3845H35.117C29.2836 69.3845 23.5506 67.9206 18.4527 65.1592L0 70ZM19.3386 58.8878L20.3916 59.52C24.8376 62.1483 29.9355 63.529 35.1337 63.5456H35.1504C51.1127 63.5456 64.1165 50.6203 64.1165 34.7172C64.1165 27.0152 61.1079 19.779 55.6423 14.3227C50.1767 8.86645 42.8892 5.87215 35.1504 5.87215C19.1881 5.85552 6.18433 18.7809 6.18433 34.6839C6.18433 40.1236 7.70534 45.4301 10.6136 50.0214L11.2989 51.1193L8.37392 61.7491L19.3386 58.8878Z" fill="white"/>
<path d="M1.2207 68.7857L6.00102 51.4354C3.04257 46.3617 1.48813 40.5894 1.48813 34.7006C1.50485 16.2357 16.598 1.21436 35.151 1.21436C44.16 1.21436 52.6008 4.7077 58.9523 11.029C65.3038 17.3503 68.7971 25.7676 68.7971 34.7172C68.7971 53.182 53.6872 68.2034 35.151 68.2034H35.1342C29.5015 68.2034 23.969 66.7895 19.055 64.1279L1.2207 68.7857Z" fill="#0BA2E3"/>
<path d="M0 70L4.94746 52.0342C1.88873 46.7609 0.284145 40.789 0.300859 34.6839C0.300859 15.5537 15.9455 0 35.1504 0C44.477 0 53.2354 3.60979 59.8042 10.164C66.3896 16.7182 70.0167 25.4349 69.9999 34.7006C69.9999 53.8308 54.3553 69.3845 35.1337 69.3845H35.117C29.2836 69.3845 23.5506 67.9206 18.4527 65.1592L0 70ZM19.3386 58.8878L20.3916 59.52C24.8376 62.1483 29.9355 63.529 35.1337 63.5456H35.1504C51.1127 63.5456 64.1165 50.6203 64.1165 34.7172C64.1165 27.0152 61.1079 19.779 55.6423 14.3227C50.1767 8.86645 42.8892 5.87215 35.1504 5.87215C19.1881 5.85552 6.18433 18.7809 6.18433 34.6839C6.18433 40.1236 7.70534 45.4301 10.6136 50.0214L11.2989 51.1193L8.37392 61.7491L19.3386 58.8878Z" fill="white"/>
<path fill-rule="evenodd" clip-rule="evenodd" d="M26.4416 20.1783C25.7897 18.7311 25.1044 18.6978 24.486 18.6812C23.9846 18.6646 23.3995 18.6646 22.8145 18.6646C22.2295 18.6646 21.2935 18.8808 20.4912 19.7458C19.6889 20.6108 17.4492 22.7069 17.4492 26.982C17.4492 31.2406 20.5748 35.3661 21.0094 35.9483C21.444 36.5305 27.0433 45.5633 35.8852 49.04C43.2396 51.9345 44.7439 51.3523 46.3317 51.2026C47.9196 51.0529 51.4798 49.1066 52.2152 47.0771C52.9339 45.0476 52.9339 43.3176 52.7166 42.9516C52.4993 42.5857 51.9143 42.3694 51.0452 41.9369C50.176 41.5044 45.8971 39.4084 45.0949 39.1089C44.2926 38.8262 43.7076 38.6764 43.1393 39.5415C42.5543 40.4065 40.8828 42.3528 40.3814 42.935C39.88 43.5172 39.3618 43.5838 38.4927 43.1512C37.6235 42.7187 34.8155 41.8038 31.4893 38.8428C28.8986 36.5472 27.1436 33.7026 26.6421 32.8376C26.1407 31.9725 26.592 31.5068 27.0266 31.0743C27.411 30.6916 27.8957 30.0595 28.3303 29.5605C28.7649 29.0614 28.9153 28.6954 29.1994 28.1132C29.4836 27.531 29.3499 27.0319 29.1326 26.5994C28.9153 26.1836 27.2104 21.8917 26.4416 20.1783Z" fill="white"/>
</g>
<defs>
<clipPath id="clip0_97_1786">
<rect width="70" height="70" fill="white"/>
</clipPath>
</defs>
</svg>
