<svg width="232" height="180" viewBox="0 0 232 180" fill="none" xmlns="http://www.w3.org/2000/svg">
<g clip-path="url(#clip0_91_1159)">
<path d="M107.455 180C166.8 180 214.909 178.411 214.909 176.45C214.909 174.49 166.8 172.901 107.455 172.901C48.1091 172.901 0 174.49 0 176.45C0 178.411 48.1091 180 107.455 180Z" fill="#E6E6E6"/>
<path d="M105.841 57.7019C113.148 57.7019 119.072 51.7785 119.072 44.4717C119.072 37.1649 113.148 31.2416 105.841 31.2416C98.5347 31.2416 92.6113 37.1649 92.6113 44.4717C92.6113 51.7785 98.5347 57.7019 105.841 57.7019Z" fill="#0BA2E3"/>
<path d="M102.342 75.0622L96.3554 70.4806L74.9227 109.3C74.2496 109.423 73.6274 109.74 73.1336 110.214C72.6398 110.687 72.2963 111.296 72.1458 111.963C71.9954 112.63 72.0447 113.327 72.2877 113.967C72.5306 114.606 72.9564 115.16 73.512 115.56C74.0675 115.959 74.7283 116.186 75.412 116.212C76.0956 116.238 76.7719 116.063 77.3565 115.707C77.9411 115.352 78.4081 114.832 78.6994 114.213C78.9907 113.594 79.0934 112.903 78.9946 112.226L102.342 75.0622Z" fill="#FFB8B8"/>
<path d="M156.987 97.0953C156.743 96.387 156.276 95.7764 155.657 95.3539C155.038 94.9314 154.3 94.7196 153.551 94.7497L119.019 67.6615L113.839 73.1388L150.217 98.4949C150.254 98.9891 150.396 99.4697 150.634 99.9047C150.871 100.34 151.199 100.719 151.595 101.017C151.99 101.316 152.445 101.526 152.929 101.635C153.412 101.744 153.913 101.748 154.399 101.648C154.884 101.547 155.343 101.345 155.743 101.053C156.144 100.762 156.478 100.388 156.723 99.9572C156.968 99.5263 157.118 99.0482 157.164 98.5547C157.209 98.0612 157.149 97.5637 156.987 97.0953V97.0953Z" fill="#FFB8B8"/>
<path d="M116.909 172.648H120.978L122.914 156.956H116.909V172.648Z" fill="#FFB8B8"/>
<path d="M128.823 176.425H116.037V171.485H123.883C125.193 171.485 126.45 172.006 127.376 172.932C128.303 173.859 128.823 175.115 128.823 176.425V176.425Z" fill="#2F2E41"/>
<path d="M84.6729 169.016L88.4105 170.622L96.3854 156.97L90.8687 154.599L84.6729 169.016Z" fill="#FFB8B8"/>
<path d="M94.1279 177.191L82.3808 172.142L84.3314 167.604L91.5398 170.701C92.7436 171.219 93.6925 172.193 94.1778 173.41C94.6632 174.627 94.6452 175.987 94.1279 177.191Z" fill="#2F2E41"/>
<path d="M97.3539 97.4081L78.001 158.375L103.402 161.096L105.841 125.466L109.147 161.096L129.71 158.677C129.71 158.677 125.995 102.246 119.234 98.6176C112.473 94.989 97.3539 97.4081 97.3539 97.4081Z" fill="#2F2E41"/>
<path d="M107.847 60.8911C112.523 60.8911 116.314 57.1003 116.314 52.4242C116.314 47.748 112.523 43.9573 107.847 43.9573C103.171 43.9573 99.3799 47.748 99.3799 52.4242C99.3799 57.1003 103.171 60.8911 107.847 60.8911Z" fill="#FFB8B8"/>
<path d="M107.576 100.141C101.697 100.141 96.039 99.8805 95.7474 99.375C95.7226 99.3326 95.7133 99.2829 95.7208 99.2344C95.7284 99.1858 95.7524 99.1414 95.7888 99.1084C96.1933 98.5129 95.2437 88.832 93.244 73.2173C93.0174 71.3887 93.4219 69.5375 94.3906 67.9701C95.3593 66.4027 96.8342 65.213 98.571 64.598L98.6084 64.5895L116.328 62.8396L116.527 62.8954C118.28 63.3828 119.815 64.4519 120.879 65.9271C121.944 67.4023 122.476 69.1958 122.386 71.013C121.929 80.9737 121.163 97.8445 121.163 98.92C121.163 99.2127 120.755 99.3593 120.4 99.4544C118.675 99.9167 113.03 100.141 107.576 100.141Z" fill="#2F2E41"/>
<path d="M36.0287 29.7574L16.2705 54.4485L40.9616 74.2067L60.7198 49.5156L36.0287 29.7574Z" fill="#F2F2F2"/>
<path d="M40.79 79.7503C39.402 79.5387 38.1079 78.9203 37.0713 77.9732C36.0348 77.0261 35.3023 75.7929 34.9666 74.4296C34.6309 73.0662 34.7071 71.6339 35.1854 70.3139C35.6637 68.9938 36.5227 67.8452 37.6538 67.0133C38.7849 66.1814 40.1373 65.7037 41.54 65.6404C42.9426 65.5771 44.3325 65.9312 45.5339 66.6579C46.7353 67.3845 47.6943 68.4511 48.2895 69.7228C48.8847 70.9945 49.0895 72.4141 48.8779 73.8021C48.7374 74.7237 48.4168 75.6087 47.9343 76.4064C47.4518 77.2041 46.8169 77.8989 46.0659 78.4513C45.3148 79.0036 44.4624 79.4026 43.5571 79.6255C42.6519 79.8484 41.7116 79.8908 40.79 79.7503ZM42.8324 66.3523C41.5706 66.1599 40.28 66.346 39.124 66.8872C37.9679 67.4283 36.9983 68.3 36.3377 69.3922C35.677 70.4844 35.3551 71.748 35.4127 73.0231C35.4702 74.2982 35.9045 75.5277 36.6608 76.5559C37.417 77.5842 38.4612 78.3652 39.6613 78.8C40.8614 79.2348 42.1634 79.304 43.4028 78.9988C44.6423 78.6937 45.7633 78.0278 46.6243 77.0855C47.4853 76.1432 48.0475 74.9667 48.2399 73.7049C48.4958 72.0131 48.0703 70.2888 47.0565 68.9104C46.0428 67.532 44.5236 66.612 42.8324 66.3523Z" fill="#3F3D56"/>
<path d="M25.679 159.795C23.2557 167.89 27.0167 176.167 27.0167 176.167C27.0167 176.167 34.7067 171.318 37.1301 163.223C39.5534 155.128 35.7924 146.852 35.7924 146.852C35.7924 146.852 28.1024 151.7 25.679 159.795Z" fill="#E6E6E6"/>
<path d="M29.3582 160.014C31.3978 168.214 27.2514 176.305 27.2514 176.305C27.2514 176.305 19.7981 171.1 17.7585 162.899C15.7189 154.699 19.8654 146.609 19.8654 146.609C19.8654 146.609 27.3187 151.814 29.3582 160.014Z" fill="#E6E6E6"/>
<path d="M95.9404 46.8162C100.443 49.2678 105.511 50.4923 110.636 50.367C112.599 50.3161 114.762 49.959 116.005 48.4389C117.408 46.7238 117.057 44.0439 115.704 42.2893C114.351 40.5348 112.234 39.5456 110.122 38.8748C108.124 38.2402 105.983 37.8314 103.934 38.2751C102.853 38.5092 101.835 38.9735 100.949 39.6363C100.063 40.2991 99.3301 41.1449 98.8003 42.1162C98.2705 43.0875 97.9561 44.1614 97.8784 45.2651C97.8008 46.3688 97.9617 47.4762 98.3502 48.5121" fill="#0BA2E3"/>
<path d="M96.4833 42.5356C100.582 42.5356 103.905 39.2127 103.905 35.1138C103.905 31.0149 100.582 27.692 96.4833 27.692C92.3844 27.692 89.0615 31.0149 89.0615 35.1138C89.0615 39.2127 92.3844 42.5356 96.4833 42.5356Z" fill="#0BA2E3"/>
<path d="M230.596 35.9367L201.462 18.9566L205.2 12.5445C205.306 12.3614 205.376 12.1591 205.404 11.9492C205.433 11.7392 205.42 11.5257 205.366 11.3208C205.312 11.1159 205.218 10.9237 205.09 10.7551C204.961 10.5864 204.801 10.4447 204.618 10.338C204.435 10.2313 204.233 10.1618 204.023 10.1332C203.813 10.1047 203.599 10.1178 203.395 10.1718C203.19 10.2258 202.997 10.3196 202.829 10.4479C202.66 10.5762 202.518 10.7365 202.412 10.9195L198.675 17.3317L169.541 0.351543C168.949 0.0067855 168.245 -0.0888709 167.583 0.0856132C166.921 0.260097 166.356 0.690429 166.011 1.28194L143.262 40.3125C142.918 40.904 142.822 41.6083 142.996 42.2703C143.171 42.9324 143.601 43.498 144.193 43.8428L173.326 60.8229L147.816 104.593C147.709 104.776 147.639 104.978 147.611 105.188C147.582 105.398 147.595 105.612 147.649 105.817C147.703 106.022 147.797 106.214 147.925 106.383C148.053 106.551 148.214 106.693 148.397 106.8C148.58 106.906 148.782 106.976 148.992 107.005C149.202 107.033 149.416 107.02 149.621 106.966C149.826 106.912 150.018 106.818 150.186 106.69C150.355 106.561 150.497 106.401 150.603 106.218L176.114 62.4477L205.248 79.4278C205.541 79.5985 205.864 79.7099 206.2 79.7555C206.536 79.8012 206.878 79.7802 207.206 79.6938C207.533 79.6074 207.841 79.4573 208.111 79.252C208.381 79.0467 208.607 78.7903 208.778 78.4974L231.526 39.4669C231.697 39.174 231.808 38.8503 231.854 38.5144C231.9 38.1785 231.879 37.8369 231.792 37.5091C231.706 37.1813 231.556 36.8737 231.351 36.6039C231.145 36.3341 230.889 36.1074 230.596 35.9367Z" fill="#3F3D56"/>
<path opacity="0.1" d="M190.189 59.4463C191.086 57.9066 187.071 53.8939 181.22 50.4838C175.369 47.0737 169.898 45.5574 169.001 47.0971C168.103 48.6368 172.119 52.6495 177.97 56.0596C183.821 59.4697 189.291 60.986 190.189 59.4463Z" fill="black"/>
<path d="M187.394 55.3788C195.949 55.3788 202.883 48.4441 202.883 39.8898C202.883 31.3355 195.949 24.4009 187.394 24.4009C178.84 24.4009 171.905 31.3355 171.905 39.8898C171.905 48.4441 178.84 55.3788 187.394 55.3788Z" fill="#0BA2E3"/>
<path d="M194.133 47.5524C193.235 49.0921 186.906 50.0631 182.287 47.3709C177.668 44.6787 176.508 39.3427 177.405 37.803C178.303 36.2633 180.917 39.1029 185.537 41.7951C190.156 44.4873 195.03 46.0126 194.133 47.5524Z" fill="#F2F2F2"/>
<path d="M184.024 34.8025C185.806 34.8025 187.251 33.3578 187.251 31.5756C187.251 29.7935 185.806 28.3488 184.024 28.3488C182.242 28.3488 180.797 29.7935 180.797 31.5756C180.797 33.3578 182.242 34.8025 184.024 34.8025Z" fill="#F2F2F2"/>
<path d="M195.733 41.6269C197.515 41.6269 198.96 40.1822 198.96 38.4001C198.96 36.6179 197.515 35.1732 195.733 35.1732C193.951 35.1732 192.506 36.6179 192.506 38.4001C192.506 40.1822 193.951 41.6269 195.733 41.6269Z" fill="#F2F2F2"/>
</g>
<defs>
<clipPath id="clip0_91_1159">
<rect width="231.878" height="180" fill="white"/>
</clipPath>
</defs>
</svg>
