<svg width="245" height="180" viewBox="0 0 245 180" fill="none" xmlns="http://www.w3.org/2000/svg">
<g clip-path="url(#clip0_91_1033)">
<path opacity="0.1" d="M2.62695 86.2987C6.48025 101.191 14.6305 114.064 27.5103 120.304C54.2859 133.272 114.672 126.584 159.74 118.906C183.053 114.936 203.544 103.977 218.429 88.5548L2.62695 86.2987Z" fill="#0BA2E3"/>
<path opacity="0.1" d="M238.962 16.2007H214.234C213.06 16.2007 212.098 15.3311 212.098 14.2685C212.098 13.2059 213.06 12.3341 214.234 12.3341H218.511C217.335 12.3341 216.374 11.4645 216.374 10.3997C216.374 9.33489 217.335 8.46751 218.511 8.46751H215.458C214.283 8.46751 213.32 7.59791 213.32 6.5331C213.32 5.46828 214.283 4.6009 215.458 4.6009H228.365C225.501 3.39633 222.153 2.54005 218.296 2.08972C183.101 -1.99872 170.536 0.705463 166.104 3.48507C160.58 6.99284 154.443 9.4268 148.016 10.6592C126.302 14.7122 85.6953 19.5881 48.8905 9.10639C30.5979 3.88659 17.0016 12.6957 8.85352 27.4212H243.257C242.95 23.142 242.034 19.1888 240.353 15.7304C239.955 16.0379 239.465 16.2034 238.962 16.2007Z" fill="#0BA2E3"/>
<path opacity="0.1" d="M0.530214 55.215C-0.419586 63.8758 -0.0967212 72.6291 1.48855 81.1964L218.595 88.3817C224.571 82.1833 229.649 75.1775 233.68 67.569L0.530214 55.215ZM86.3985 73.7494H82.1237C83.2995 73.7494 84.2622 74.6212 84.2622 75.6838C84.2622 76.7464 83.2995 77.616 82.1237 77.616H57.3957C56.2222 77.616 55.2594 76.7464 55.2594 75.6838C55.2594 74.6212 56.2222 73.7494 57.3957 73.7494H61.6727C60.4969 73.7494 59.5364 72.8798 59.5364 71.8172C59.5364 70.7546 60.4969 69.8828 61.6727 69.8828H58.618C57.4423 69.8828 56.4795 69.0132 56.4795 67.9506C56.4795 66.888 57.4423 66.0162 58.618 66.0162H83.3461C84.5218 66.0162 85.4823 66.8858 85.4823 67.9506C85.4823 69.0154 84.5218 69.8828 83.3461 69.8828H86.3985C87.5742 69.8828 88.5348 70.7524 88.5348 71.8172C88.5348 72.882 87.5742 73.7494 86.3985 73.7494Z" fill="#0BA2E3"/>
<path opacity="0.1" d="M243.266 27.5542L6.23831 32.7673C3.35444 39.4734 1.44221 47.0558 0.561523 54.9132H239.113C240.665 50.3162 241.817 45.5934 242.556 40.7978C243.268 36.1814 243.552 31.7158 243.266 27.5542ZM48.6866 44.6467H44.4118C45.5876 44.6467 46.5503 45.5185 46.5503 46.5811C46.5503 47.6437 45.5876 48.5155 44.4118 48.5155H19.6838C18.5103 48.5155 17.5475 47.6437 17.5475 46.5811C17.5475 45.5185 18.5103 44.6467 19.6838 44.6467H23.9608C22.7851 44.6467 21.8245 43.7771 21.8245 42.7145C21.8245 41.6519 22.7851 40.7801 23.9608 40.7801H20.9061C19.7304 40.7801 18.7676 39.9105 18.7676 38.8479C18.7676 37.7853 19.7304 36.9135 20.9061 36.9135H45.6342C46.8099 36.9135 47.7704 37.7831 47.7704 38.8479C47.7704 39.9127 46.8099 40.7801 45.6342 40.7801H48.6866C49.8624 40.7801 50.8229 41.6519 50.8229 42.7145C50.8229 43.7771 49.8624 44.6467 48.6866 44.6467Z" fill="#0BA2E3"/>
<path opacity="0.1" d="M120.918 173.272C175.681 173.272 220.074 169.188 220.074 164.15C220.074 159.112 175.681 155.028 120.918 155.028C66.1555 155.028 21.7617 159.112 21.7617 164.15C21.7617 169.188 66.1555 173.272 120.918 173.272Z" fill="#0BA2E3"/>
<path d="M221.978 88.8055C221.977 88.7899 221.977 88.7744 221.978 88.7589C221.978 88.7345 221.978 88.7123 221.978 88.6901C221.933 88.436 221.838 88.1937 221.696 87.978C221.189 87.1655 220.481 86.4965 219.642 86.0347C218.178 85.2317 216.166 84.8878 215.58 83.3549C215.4 82.8802 215.396 82.3633 215.307 81.8664C215.152 81.0922 214.796 80.3725 214.274 79.7794C213.753 79.1864 213.085 78.741 212.337 78.4879C211.64 78.2549 210.888 78.1906 210.212 77.9022C208.699 77.2589 207.9 75.6728 207.224 74.2064C206.348 72.3134 205.473 70.4197 204.597 68.5252C203.932 68.8602 203.071 68.7027 202.447 68.2834C201.847 67.8362 201.368 67.245 201.057 66.5642C200.154 64.8117 199.765 62.8262 198.705 61.158C197.645 59.4898 195.526 58.1721 193.654 58.8975C193.288 59.0802 192.91 59.2366 192.522 59.3656C190.919 59.7405 189.144 57.9081 187.771 58.7977C187.543 58.944 187.357 59.1474 187.232 59.3878C187.23 59.373 187.23 59.3582 187.232 59.3434C187.053 59.7042 186.953 60.099 186.939 60.5014C186.939 60.5835 186.939 60.6633 186.939 60.741C186.939 60.7543 186.939 60.7676 186.939 60.7809C186.939 61.1003 186.959 61.4242 186.963 61.7481C186.968 62.0201 186.947 62.292 186.901 62.56V62.5378C186.875 62.6887 186.837 62.8371 186.786 62.9815C186.429 63.9399 185.439 64.5676 184.976 65.4683V65.4239C184.923 65.5219 184.878 65.6235 184.84 65.7278C184.758 65.9639 184.715 66.2121 184.714 66.4621C184.674 68.1547 186.469 69.7475 186.677 71.5644C186.826 72.851 187.121 73.2636 188.214 73.9912L188.454 74.151C188.359 74.151 188.261 74.1643 188.152 74.1665C188.11 74.1673 188.068 74.1717 188.026 74.1798C187.833 74.1267 187.631 74.117 187.433 74.1516C187.236 74.1861 187.049 74.2639 186.886 74.3795C186.047 75.045 184.064 74.5325 183.183 74.3795C182.303 74.2264 179.286 74.639 178.864 76.3116C178.443 77.9843 177.719 81.4361 177.719 81.4361C177.719 81.4361 177.719 83.6256 177.451 84.0338C177.441 84.0624 177.441 84.0938 177.451 84.1225C177.451 84.737 177.473 88.4306 176.879 89.3822C176.732 89.6041 176.743 90.0943 176.852 90.6977C176.226 91.503 175.639 92.4436 175.743 93.0603C175.934 94.3225 178.494 98.2912 182.163 96.166C182.163 96.166 184.25 92.3482 181.624 90.3184L181.737 89.8747C182.531 90.8508 183.119 91.5518 183.119 91.5518C183.119 91.5518 183.15 91.6339 183.199 91.7736H183.119C183.462 92.7065 183.669 93.6836 183.736 94.6752C183.726 95.0388 183.66 95.3987 183.54 95.7423H183.609C183.589 95.8177 183.567 95.8931 183.54 95.9641C183.411 96.3387 183.171 96.6647 182.85 96.898C181.016 98.198 178.915 107.482 178.915 107.482C178.915 107.482 174.753 122.489 173.922 123.343C173.234 124.044 177.555 126.018 180.798 125.783C181.251 125.756 181.698 125.671 182.129 125.53C182.149 125.752 182.172 125.974 182.194 126.176C182.263 126.841 182.334 127.458 182.378 127.651C182.493 128.135 182.722 133.073 182.722 133.073C182.722 133.073 182.254 136.281 182.367 138.512C182.367 138.665 182.387 138.812 182.4 138.956L181.996 139.018C181.384 140.393 183.906 151.869 184.25 152.834C184.478 153.594 184.606 154.381 184.632 155.174C184.632 155.174 184.41 155.991 184.594 156.437C184.709 156.709 184.783 156.997 184.816 157.291C184.816 157.291 184.665 158.032 184.894 158.515C185.122 158.999 184.856 159.846 184.856 159.846C184.856 159.846 184.78 163.189 184.093 165.008C183.905 165.498 183.851 166.028 183.935 166.546C184.018 167.063 184.238 167.549 184.57 167.954C184.617 168.018 184.669 168.078 184.725 168.134C184.725 168.134 188.518 168.165 189.186 168.134H189.273C189.541 168.096 190.229 165.088 189.616 163.64C189.004 162.191 189.541 160.407 189.541 160.407V157.772C189.541 157.772 190.229 157.138 189.541 155.776C188.853 154.413 188.966 154.001 188.966 154.001C188.966 154.001 189.732 151.809 188.929 151.104C188.126 150.398 189.082 147.723 189.082 147.723L189.352 138.805C189.211 138.759 189.066 138.722 188.92 138.694C188.904 138.548 188.889 138.397 188.873 138.237C188.716 136.622 188.58 134.426 188.931 133.8C189.281 133.175 189.45 127.713 189.506 123.918L193.002 124.051C193.075 125.825 193.153 127.445 193.201 127.651C193.317 128.135 193.547 133.073 193.547 133.073C193.547 133.073 193.077 136.281 193.19 138.512C193.19 138.665 193.21 138.812 193.223 138.956L192.82 139.018C192.207 140.393 194.73 151.869 195.074 152.834C195.302 153.594 195.431 154.381 195.457 155.174C195.457 155.174 195.236 155.991 195.417 156.437C195.532 156.709 195.607 156.997 195.639 157.291C195.639 157.291 195.488 158.032 195.717 158.515C195.945 158.999 195.679 159.846 195.679 159.846C195.679 159.846 195.604 163.189 194.916 165.008C194.732 165.499 194.68 166.029 194.767 166.545C194.853 167.062 195.075 167.546 195.409 167.95C195.456 168.013 195.508 168.073 195.564 168.13C195.564 168.13 199.357 168.161 200.025 168.13H200.112C200.38 168.092 201.068 165.084 200.455 163.635C199.843 162.187 200.38 160.403 200.38 160.403V157.772C200.38 157.772 201.068 157.138 200.38 155.776C199.692 154.413 199.805 154.001 199.805 154.001C199.805 154.001 200.571 151.809 199.768 151.104C198.965 150.398 199.921 147.723 199.921 147.723L200.196 138.805C200.051 138.758 199.902 138.721 199.752 138.694C199.737 138.548 199.721 138.397 199.706 138.237C199.548 136.622 199.413 134.426 199.763 133.8C200.045 133.288 200.207 129.987 200.28 126.764C200.28 126.542 200.28 126.32 200.298 126.098C201.904 126.031 203.504 125.852 205.085 125.561C205.085 125.561 203.215 118.949 203.787 117.873C204.034 117.409 203.679 114.94 203.193 112.28C203.87 112.829 204.713 113.133 205.584 113.145C206.421 114.754 208.965 118.454 210.398 119.024C212.08 119.689 210.817 113.789 210.016 112.935C209.638 112.468 209.319 111.956 209.067 111.411C209.089 111.384 209.114 111.362 209.136 111.337C209.158 111.313 209.176 105.059 208.792 105.173C208.408 105.286 207.951 104.243 207.951 104.243L206.767 93.8456L206.27 89.4931C206.685 89.7993 207.177 89.9945 207.601 90.2984C208.754 91.1436 209.131 92.6277 209.637 93.941C210.054 95.0213 210.64 96.0928 211.6 96.7716C212.561 97.4504 213.97 97.6301 214.928 96.9424C215.815 96.2969 216.077 95.1322 216.272 94.0696C217.883 94.6353 219.837 93.1224 219.629 91.4697C219.578 91.0615 219.427 90.6156 219.64 90.2585C220.066 89.553 221.414 89.9634 221.858 89.2669C221.933 89.1464 221.971 89.007 221.969 88.8654C221.976 88.8343 221.978 88.821 221.978 88.8055ZM200.435 94.5244C200.411 94.9215 200.957 98.1115 201.4 100.636C201.037 99.0632 200.307 97.3839 198.869 96.2325C198.869 96.2325 198.869 96.1527 198.851 96.0107H198.869C198.869 96.0107 198.809 95.3762 198.8 94.4734C198.803 93.673 198.862 92.8739 198.978 92.082V92.062H198.949C198.949 91.9955 198.967 91.9267 198.978 91.8601C199.066 91.1918 199.248 90.5392 199.517 89.9213C199.636 89.6791 199.773 89.4463 199.927 89.2247C200.165 91.3699 200.458 94.1229 200.435 94.5244ZM201.629 101.916C201.824 103.005 201.964 103.771 201.964 103.771L203.142 111.859V111.896C202.507 108.482 201.698 104.884 201.698 104.884C201.78 103.895 201.757 102.9 201.629 101.916Z" fill="url(#paint0_linear_91_1033)"/>
<path d="M187.192 72.0079C186.97 69.9582 184.752 68.1901 185.417 66.2402C185.779 65.1776 186.91 64.5276 187.292 63.4717C187.544 62.7751 187.431 62.0098 187.434 61.2689C187.436 60.5279 187.609 59.7005 188.225 59.2901C189.556 58.4027 191.269 60.2284 192.822 59.8558C193.197 59.7274 193.563 59.5717 193.916 59.3899C195.728 58.6689 197.778 59.9822 198.796 61.6415C199.814 63.3009 200.196 65.2796 201.07 67.0233C201.368 67.6966 201.83 68.2846 202.414 68.7336C203.017 69.1507 203.843 69.3082 204.495 68.9754L207.035 74.6322C207.7 76.0897 208.464 77.6692 209.919 78.3103C210.571 78.5965 211.299 78.6608 211.973 78.8937C212.706 79.1522 213.358 79.5988 213.864 80.1886C214.37 80.7784 214.713 81.4908 214.857 82.2545C214.943 82.7514 214.946 83.2661 215.121 83.7386C215.687 85.2648 217.632 85.6065 219.05 86.4006C219.87 86.863 220.557 87.5284 221.046 88.3328C221.268 88.7166 221.459 89.2202 221.221 89.5973C220.793 90.2894 219.491 89.8812 219.078 90.5845C218.87 90.9394 219.016 91.3831 219.078 91.7913C219.28 93.4351 217.388 94.9413 215.831 94.3779C215.642 95.436 215.387 96.5962 214.531 97.2373C213.61 97.925 212.246 97.7431 211.316 97.0687C210.387 96.3943 209.823 95.3273 209.42 94.2514C208.929 92.9426 208.563 91.4652 207.448 90.6244C207.044 90.3227 206.56 90.1275 206.165 89.8236C205.278 89.1448 204.834 88.0245 204.517 86.9397C204.107 85.5865 203.781 84.1956 203.186 82.9178C202.592 81.64 201.651 80.451 200.362 79.8676C199.153 79.3241 197.76 79.3596 196.511 78.9181C194.361 78.1594 192.771 76.3515 190.632 75.4996C189.949 75.2123 189.301 74.846 188.702 74.4082C187.627 73.7005 187.334 73.2901 187.192 72.0079Z" fill="#3F3D56"/>
<g opacity="0.1">
<path opacity="0.1" d="M187.392 63.037C187.437 62.9502 187.477 62.8606 187.511 62.7686C187.762 62.072 187.651 61.3067 187.653 60.5657C187.653 60.3186 187.676 60.072 187.722 59.8292C187.517 60.2675 187.418 60.7476 187.432 61.2312C187.429 61.828 187.5 62.4536 187.392 63.037Z" fill="black"/>
<path opacity="0.1" d="M214.739 96.5409C213.819 97.2264 212.455 97.0467 211.525 96.3701C210.596 95.6935 210.03 94.6309 209.637 93.5506C209.147 92.2417 208.783 90.7643 207.665 89.9235C207.264 89.6218 206.778 89.4244 206.385 89.1227C205.498 88.4439 205.054 87.3236 204.735 86.2499C204.324 84.8967 204 83.5058 203.404 82.228C202.807 80.9503 201.871 79.7612 200.58 79.1778C199.373 78.6343 197.98 78.6698 196.731 78.2283C194.579 77.4697 192.988 75.6617 190.852 74.8099C190.168 74.5216 189.52 74.1554 188.92 73.7184C187.868 72.993 187.589 72.5826 187.434 71.3026C187.212 69.3815 185.26 67.7067 185.564 65.8965C185.514 65.9944 185.47 66.0952 185.433 66.1982C184.767 68.1503 186.986 69.9184 187.207 71.9659C187.352 73.2459 187.651 73.6563 188.694 74.3817C189.294 74.8187 189.942 75.1849 190.626 75.4731C192.762 76.325 194.353 78.1352 196.504 78.8916C197.753 79.3353 199.147 79.2976 200.353 79.8411C201.644 80.4245 202.572 81.6158 203.177 82.8913C203.783 84.1669 204.107 85.5534 204.508 86.9132C204.834 87.9869 205.263 89.1072 206.159 89.786C206.56 90.0877 207.046 90.2851 207.439 90.5868C208.548 91.4276 208.921 92.905 209.411 94.2138C209.815 95.2897 210.38 96.3546 211.31 97.0289C212.239 97.7033 213.604 97.8852 214.524 97.1998C215.112 96.7561 215.412 96.0795 215.609 95.3541C215.434 95.822 215.133 96.2325 214.739 96.5409Z" fill="black"/>
<path opacity="0.1" d="M219.298 89.888C219.214 90.0472 219.177 90.2274 219.192 90.4071C219.693 89.9124 220.825 90.203 221.219 89.5664C221.311 89.409 221.347 89.2253 221.322 89.045C220.807 89.5331 219.676 89.2425 219.298 89.888Z" fill="black"/>
<path opacity="0.1" d="M216.039 93.6814C215.997 93.9033 215.955 94.1406 215.901 94.3714C217.259 94.7951 218.827 93.7058 219.049 92.3304C218.51 93.3886 217.179 94.0963 216.039 93.6814Z" fill="black"/>
</g>
<path d="M190.058 73.075C190.058 73.075 190.796 74.5657 188.616 74.5968C186.435 74.6278 190.02 84.2777 190.02 84.2777L193.645 88.8919L198.155 86.4517L198.414 79.7212L198.747 75.6549C198.747 75.6549 194.532 74.2862 195.308 72.476C196.085 70.6658 190.058 73.075 190.058 73.075Z" fill="#FBBEBE"/>
<path d="M203.148 112.42C203.148 112.42 205.81 115.04 208.916 111.564L206.531 109.032H203.514L203.148 112.42Z" fill="#575A89"/>
<path opacity="0.1" d="M203.437 109.032L203.071 112.42C203.071 112.42 205.733 115.04 208.839 111.564" fill="black"/>
<path d="M207.916 109.494C207.916 109.494 208.988 112.305 209.764 113.154C210.54 114.004 211.76 119.882 210.134 119.217C208.508 118.551 205.403 113.598 205.216 112.748C205.03 111.899 204.959 109.494 204.959 109.494H207.916Z" fill="#FBBEBE"/>
<path d="M184.661 123.913L199.005 124.468L197.341 118.403L190.116 118.256L184.661 123.913Z" fill="#575A89"/>
<path opacity="0.1" d="M186.655 123.913L201.001 124.468L199.338 118.403L192.11 118.256L186.655 123.913Z" fill="black"/>
<path d="M189.355 133.925C189.016 134.557 189.147 136.744 189.3 138.361C189.397 139.391 189.504 140.183 189.504 140.183C189.504 140.183 184.142 141.846 183.33 140.405C183.124 140.038 183.022 139.397 182.986 138.645C182.875 136.427 183.33 133.23 183.33 133.23C183.33 133.23 183.108 128.314 182.997 127.833C182.953 127.64 182.884 127.028 182.818 126.364C182.72 125.38 182.627 124.284 182.627 124.284L189.948 120.401C189.948 120.401 189.948 121.129 189.934 122.249C189.894 125.768 189.777 133.148 189.355 133.925Z" fill="#FBBEBE"/>
<path opacity="0.1" d="M189.504 140.183C189.504 140.183 184.142 141.847 183.33 140.405C183.124 140.039 183.022 139.397 182.986 138.645C184.096 138.477 187.472 138.011 189.3 138.361C189.397 139.391 189.504 140.183 189.504 140.183Z" fill="black"/>
<path d="M189.688 168.134H189.603C188.958 168.158 185.288 168.134 185.288 168.134C185.235 168.078 185.184 168.019 185.138 167.957C184.813 167.55 184.599 167.068 184.516 166.555C184.432 166.042 184.482 165.516 184.661 165.028C185.326 163.216 185.399 159.888 185.399 159.888C185.399 159.888 185.659 159.039 185.437 158.557C185.215 158.076 185.362 157.337 185.362 157.337C185.328 157.045 185.253 156.759 185.14 156.488C184.956 156.044 185.178 155.23 185.178 155.23C185.152 154.441 185.028 153.658 184.807 152.901C184.474 151.94 182.034 140.515 182.626 139.147C182.626 139.147 187.802 138.259 189.763 138.925L189.503 147.798C189.503 147.798 188.578 150.46 189.355 151.164C190.131 151.867 189.392 154.047 189.392 154.047C189.392 154.047 189.282 154.453 189.947 155.822C190.613 157.191 189.947 157.819 189.947 157.819V160.443C189.947 160.443 189.43 162.218 190.02 163.66C190.61 165.102 189.947 168.087 189.688 168.134Z" fill="#3F3D56"/>
<path d="M199.845 133.925C199.506 134.557 199.637 136.744 199.79 138.361C199.888 139.391 199.994 140.183 199.994 140.183C199.994 140.183 194.632 141.846 193.82 140.405C193.614 140.038 193.512 139.397 193.477 138.645C193.366 136.427 193.82 133.23 193.82 133.23C193.82 133.23 193.599 128.314 193.488 127.833C193.428 127.573 193.323 125.098 193.241 122.877C193.173 120.983 193.117 119.27 193.117 119.27L200.438 120.402C200.438 120.402 200.438 123.62 200.347 126.928C200.267 130.136 200.118 133.423 199.845 133.925Z" fill="#FBBEBE"/>
<path opacity="0.1" d="M199.994 140.183C199.994 140.183 194.632 141.847 193.82 140.405C193.614 140.039 193.512 139.397 193.477 138.645C194.586 138.477 197.962 138.011 199.79 138.361C199.888 139.391 199.994 140.183 199.994 140.183Z" fill="black"/>
<path d="M200.179 168.134H200.094C199.449 168.158 195.78 168.134 195.78 168.134C195.726 168.078 195.675 168.019 195.629 167.957C195.304 167.55 195.09 167.068 195.007 166.555C194.923 166.042 194.973 165.516 195.152 165.028C195.817 163.207 195.884 159.879 195.884 159.879C195.884 159.879 196.143 159.03 195.921 158.548C195.7 158.067 195.846 157.328 195.846 157.328C195.812 157.036 195.737 156.75 195.624 156.479C195.44 156.035 195.662 155.221 195.662 155.221C195.637 154.432 195.512 153.649 195.291 152.892C194.959 151.931 192.519 140.507 193.111 139.138C193.111 139.138 198.286 138.25 200.247 138.916L199.988 147.789C199.988 147.789 199.063 150.451 199.839 151.155C200.616 151.858 199.877 154.039 199.877 154.039C199.877 154.039 199.766 154.444 200.431 155.813C201.097 157.182 200.431 157.81 200.431 157.81V160.434C200.431 160.434 199.915 162.209 200.505 163.651C201.095 165.093 200.438 168.087 200.179 168.134Z" fill="#3F3D56"/>
<path opacity="0.1" d="M192.942 74.8186C195.821 74.8186 198.155 72.4846 198.155 69.6055C198.155 66.7263 195.821 64.3923 192.942 64.3923C190.063 64.3923 187.729 66.7263 187.729 69.6055C187.729 72.4846 190.063 74.8186 192.942 74.8186Z" fill="black"/>
<path d="M192.942 74.5968C195.821 74.5968 198.155 72.2628 198.155 69.3837C198.155 66.5045 195.821 64.1705 192.942 64.1705C190.063 64.1705 187.729 66.5045 187.729 69.3837C187.729 72.2628 190.063 74.5968 192.942 74.5968Z" fill="#FBBEBE"/>
<path opacity="0.1" d="M182.627 124.284L189.948 120.401C189.948 120.401 189.948 121.129 189.934 122.249C188.865 122.888 187.252 123.849 185.702 124.756C184.859 125.251 184.036 125.73 183.33 126.132C183.166 126.22 182.995 126.295 182.818 126.353C182.72 125.379 182.627 124.284 182.627 124.284Z" fill="black"/>
<path opacity="0.1" d="M200.438 120.393C200.438 120.393 200.438 123.612 200.347 126.919H200.32C199.773 126.939 199.225 126.922 198.681 126.868C197.725 126.766 196.959 126.513 196.684 126.012C196.127 125.036 194.568 123.793 193.25 122.868C193.181 120.974 193.126 119.261 193.126 119.261L200.438 120.393Z" fill="black"/>
<path d="M199.076 92.1995C198.89 93.6434 198.855 95.1028 198.969 96.5541C202.332 99.327 201.705 105.168 201.705 105.168C201.705 105.168 204.293 117.001 203.739 118.072C203.184 119.144 204.994 125.726 204.994 125.726C203.451 126.018 201.889 126.197 200.32 126.262C199.773 126.282 199.226 126.265 198.681 126.211C197.725 126.109 196.959 125.856 196.684 125.355C195.651 123.545 191.176 120.845 191.176 120.845C191.176 120.845 188.341 122.544 185.701 124.091C184.858 124.585 184.035 125.064 183.33 125.466C182.757 125.77 182.125 125.943 181.478 125.974C178.339 126.207 174.157 124.241 174.823 123.545C175.637 122.693 179.667 107.757 179.667 107.757C179.667 107.757 181.699 98.5129 183.474 97.2196C183.785 96.9846 184.017 96.6604 184.14 96.2901C184.747 94.6019 183.731 91.8955 183.731 91.8955C183.731 91.8955 178.001 84.8345 178.259 84.4263C178.516 84.0181 178.518 81.8397 178.518 81.8397C178.518 81.8397 179.222 78.4013 179.627 76.7375C180.033 75.0737 182.955 74.6656 183.805 74.8142C184.654 74.9628 186.575 75.4797 187.387 74.8142C188.199 74.1487 189.57 75.0737 189.57 75.0737L192.938 76.001L195.966 74.2263C195.966 74.2263 199 74.3816 199.26 74.7876C199.519 75.1935 203.513 75.9722 203.513 75.9722C205.545 77.3387 205.471 83.8473 205.471 83.8473C205.471 83.8473 200.591 88.0977 199.593 90.2806C199.334 90.8938 199.16 91.5393 199.076 92.1995Z" fill="#575A89"/>
<path d="M204.367 82.9468L205.476 83.8341L206.623 94.1495L207.768 104.503C207.768 104.503 208.211 105.539 208.582 105.428C208.952 105.317 208.914 111.564 208.914 111.564C208.914 111.564 204.669 108.953 203.147 112.42L201.962 104.059C201.962 104.059 200.445 95.5182 200.482 94.8527C200.52 94.1872 199.706 86.9775 199.706 86.9775L204.367 82.9468Z" fill="#575A89"/>
<path d="M179.077 83.4281L178.263 84.4264C178.263 84.4264 178.339 88.7145 177.709 89.7504C177.079 90.7864 179.448 96.8492 180.335 96.4787C181.223 96.1083 183.219 86.6447 183.219 86.5338C183.219 86.4229 179.077 83.4281 179.077 83.4281Z" fill="#575A89"/>
<path d="M179.004 89.5286C179.004 89.5286 176.415 92.1529 176.599 93.4107C176.783 94.6685 179.261 98.6194 182.811 96.4964C182.811 96.4964 186.103 90.305 179.004 89.5286Z" fill="#575A89"/>
<path opacity="0.1" d="M189.603 168.141C188.958 168.165 185.289 168.141 185.289 168.141C185.235 168.084 185.184 168.025 185.138 167.963C186.076 167.644 188.104 167.165 189.603 168.141Z" fill="black"/>
<path opacity="0.1" d="M200.098 168.141C199.453 168.165 195.784 168.141 195.784 168.141C195.73 168.084 195.68 168.025 195.633 167.963C196.567 167.644 198.594 167.165 200.098 168.141Z" fill="black"/>
<path opacity="0.1" d="M185.963 103.114C185.398 108.54 185.584 119.308 185.702 124.091C184.859 124.585 184.036 125.065 183.33 125.466C182.758 125.77 182.125 125.943 181.478 125.974C181.243 124.528 184.499 109.671 185.963 103.114Z" fill="black"/>
<path opacity="0.1" d="M186.655 100.035C186.639 100.112 186.371 101.293 185.963 103.114C186.123 101.559 186.344 100.443 186.655 100.035Z" fill="black"/>
<path opacity="0.1" d="M195.662 99.4491C195.662 99.4491 198.805 119.193 189.497 121.633C189.495 121.624 195.937 120.646 195.662 99.4491Z" fill="black"/>
<path opacity="0.1" d="M200.32 126.262C199.773 126.282 199.226 126.265 198.681 126.211L196.17 99.2162C197.772 100.263 199.688 119.421 200.32 126.262Z" fill="black"/>
<path opacity="0.1" d="M189.06 66.3179C189.226 66.3047 189.394 66.322 189.554 66.369C189.79 66.4863 190.002 66.6457 190.18 66.8392C190.469 67.081 190.815 67.2455 191.185 67.3172C191.555 67.389 191.938 67.3658 192.296 67.2496C192.549 67.1366 192.818 67.0618 193.093 67.0278C193.516 67.0278 193.882 67.3384 194.102 67.6933C194.322 68.0483 194.435 68.4697 194.623 68.8491C194.812 69.2284 195.114 69.5878 195.528 69.681C195.727 69.6887 195.923 69.7339 196.105 69.8141C196.217 69.9048 196.303 70.0234 196.354 70.1579C196.7 70.9055 196.975 71.7884 197.714 72.1544C197.985 72.2804 198.281 72.3448 198.581 72.343C198.885 72.3654 199.191 72.3104 199.468 72.1833C199.741 72.0308 199.967 71.8059 200.12 71.5333C200.582 70.7702 200.635 69.8252 200.526 68.94C200.391 67.8234 199.993 66.7547 199.366 65.821C198.705 64.8767 197.806 64.1247 196.759 63.6418C195.713 63.1589 194.557 62.9624 193.41 63.0725C193.009 63.1175 192.613 63.1916 192.223 63.2943C190.812 63.6714 189.428 64.3769 188.572 65.5593C188.365 65.8544 188.137 66.1346 187.891 66.3978C188.279 66.3601 188.669 66.3268 189.06 66.3179Z" fill="black"/>
<path d="M189.06 66.096C189.226 66.0828 189.394 66.1001 189.554 66.147C189.79 66.2644 190.002 66.4237 190.18 66.6173C190.469 66.8591 190.815 67.0235 191.185 67.0953C191.555 67.1671 191.938 67.1438 192.296 67.0277C192.549 66.9146 192.818 66.8399 193.093 66.8059C193.516 66.8059 193.882 67.1165 194.102 67.4714C194.322 67.8263 194.435 68.2478 194.623 68.6272C194.812 69.0065 195.114 69.3659 195.528 69.459C195.727 69.4668 195.923 69.5119 196.105 69.5922C196.217 69.6829 196.303 69.8015 196.354 69.936C196.7 70.6836 196.975 71.5665 197.714 71.9325C197.985 72.0585 198.281 72.1228 198.581 72.1211C198.885 72.1434 199.191 72.0885 199.468 71.9614C199.741 71.8089 199.967 71.5839 200.12 71.3114C200.582 70.5483 200.635 69.6032 200.526 68.7181C200.391 67.6015 199.993 66.5328 199.366 65.5991C198.705 64.6548 197.806 63.9028 196.759 63.4199C195.713 62.937 194.557 62.7405 193.41 62.8505C193.009 62.8956 192.613 62.9697 192.223 63.0724C190.812 63.4495 189.428 64.1549 188.572 65.3373C188.365 65.6325 188.137 65.9127 187.891 66.1759C188.279 66.1382 188.669 66.1049 189.06 66.096Z" fill="#3F3D56"/>
<path opacity="0.1" d="M183.403 78.51C183.403 78.51 183.662 80.5819 182.775 81.0988C181.887 81.6157 183.403 78.51 183.403 78.51Z" fill="black"/>
<path opacity="0.1" d="M202.222 94.5576C202.222 94.5576 204.329 91.4519 204.626 92.3393C204.924 93.2266 202.222 94.5576 202.222 94.5576Z" fill="black"/>
<path opacity="0.1" d="M202.37 95.5914C202.37 95.5914 204.449 93.0403 204.648 94.0385C204.848 95.0368 202.37 95.5914 202.37 95.5914Z" fill="black"/>
<path opacity="0.1" d="M196.265 92.5545C195.511 92.5651 194.775 92.323 194.175 91.8668H193.993C193.371 92.4354 192.553 92.7428 191.71 92.7253C191.272 92.7355 190.836 92.6566 190.429 92.4934C190.023 92.3301 189.653 92.086 189.343 91.7758H189.102C188.463 92.296 187.661 92.5732 186.837 92.5581C186.014 92.5431 185.222 92.2369 184.603 91.6938L183.735 91.6782C183.735 91.6782 184.751 94.3846 184.144 96.0728L198.969 96.3368C198.854 94.8855 198.89 93.4261 199.075 91.9821V91.9622L198.261 91.9466C197.675 92.3528 196.977 92.5654 196.265 92.5545Z" fill="black"/>
<path opacity="0.1" d="M196.265 92.9981C195.511 93.0087 194.775 92.7666 194.175 92.3104H193.993C193.371 92.879 192.553 93.1864 191.71 93.1689C191.272 93.1791 190.836 93.1002 190.429 92.9369C190.023 92.7737 189.653 92.5296 189.343 92.2194H189.102C188.463 92.7396 187.661 93.0168 186.837 93.0017C186.014 92.9867 185.222 92.6805 184.603 92.1374L183.735 92.1218C183.735 92.1218 184.751 94.8282 184.144 96.5164L198.969 96.7804C198.854 95.329 198.89 93.8697 199.075 92.4257V92.4058L198.261 92.3902C197.675 92.7964 196.977 93.009 196.265 92.9981Z" fill="black"/>
<path d="M196.265 92.7763C195.511 92.787 194.775 92.5448 194.175 92.0886H193.993C193.371 92.6572 192.553 92.9646 191.71 92.9471C191.272 92.9573 190.836 92.8784 190.429 92.7152C190.023 92.5519 189.653 92.3078 189.343 91.9976H189.102C188.463 92.5178 187.661 92.795 186.837 92.7799C186.014 92.7649 185.222 92.4587 184.603 91.9156L183.735 91.9C183.735 91.9 184.751 94.6064 184.144 96.2946L198.969 96.5586C198.854 95.1073 198.89 93.6479 199.075 92.2039V92.184L198.261 92.1684C197.675 92.5746 196.977 92.7872 196.265 92.7763Z" fill="#3F3D56"/>
<path opacity="0.1" d="M195.606 77.9843C195.606 77.9843 198.728 78.1839 198.748 78.6276C198.768 79.0713 195.606 77.9843 195.606 77.9843Z" fill="black"/>
<path opacity="0.1" d="M188.024 76.092C188.024 76.092 184.903 76.2917 184.883 76.7354C184.863 77.179 188.024 76.092 188.024 76.092Z" fill="black"/>
<path opacity="0.1" d="M199.952 85.1629C199.921 85.1407 199.89 85.123 199.859 85.103C200.658 85.8218 200.525 87.3924 199.544 88.6879C198.564 89.9834 197.075 90.5225 196.17 89.9412C196.199 89.9657 196.223 89.9923 196.254 90.0167C197.142 90.6955 198.694 90.1631 199.719 88.8232C200.744 87.4833 200.844 85.844 199.952 85.1629Z" fill="black"/>
<path opacity="0.1" d="M182.806 88.5215C182.016 87.0973 182.118 85.5245 183.012 84.9277C182.979 84.9433 182.944 84.9566 182.91 84.9743C181.93 85.52 181.801 87.155 182.613 88.628C183.425 90.101 184.889 90.8463 185.87 90.3095C185.902 90.2909 185.933 90.2701 185.963 90.2474C184.984 90.6911 183.596 89.9457 182.806 88.5215Z" fill="black"/>
<path opacity="0.1" d="M183.862 76.5113L183.576 76.955L182.846 76.5668L183.23 75.9767C183.483 76.0967 183.701 76.281 183.862 76.5113Z" fill="black"/>
<path d="M179.225 92.9293C179.225 92.9293 179.875 89.8724 179.004 88.9008C178.132 87.9292 178.411 82.8358 179.742 82.9467C181.073 83.0576 183.07 87.0862 182.737 87.938C182.404 88.7899 181.147 93.1512 181.147 93.1512L179.225 92.9293Z" fill="#FBBEBE"/>
<path opacity="0.1" d="M200.098 70.8744C199.945 71.1469 199.719 71.3719 199.446 71.5244C199.169 71.6515 198.863 71.7064 198.559 71.6841C198.259 71.6859 197.963 71.6215 197.692 71.4955C196.953 71.1273 196.678 70.2444 196.332 69.499C196.288 69.3645 196.21 69.2438 196.105 69.1485C195.926 69.0668 195.732 69.0194 195.535 69.0087C195.12 68.9156 194.821 68.554 194.63 68.1769C194.439 67.7997 194.326 67.3827 194.109 67.0211C193.891 66.6595 193.523 66.3423 193.1 66.3556C192.824 66.3921 192.555 66.4707 192.303 66.5885C191.944 66.7037 191.562 66.7263 191.192 66.6541C190.822 66.582 190.476 66.4175 190.187 66.1759C190.009 65.9823 189.797 65.8229 189.561 65.7056C189.401 65.6586 189.233 65.6413 189.067 65.6546C188.811 65.6546 188.559 65.679 188.303 65.699C188.177 65.8647 188.042 66.0231 187.897 66.1737C188.286 66.1404 188.676 66.1071 189.067 66.0983C189.233 66.085 189.401 66.1023 189.561 66.1493C189.797 66.2666 190.009 66.426 190.187 66.6196C190.476 66.8612 190.822 67.0257 191.192 67.0978C191.562 67.1699 191.944 67.1474 192.303 67.0322C192.555 66.9144 192.824 66.8358 193.1 66.7993C193.523 66.7993 193.889 67.1098 194.109 67.4648C194.328 67.8197 194.442 68.2412 194.63 68.6205C194.819 68.9999 195.12 69.3593 195.535 69.4524C195.732 69.4631 195.926 69.5105 196.105 69.5922C196.217 69.6829 196.303 69.8015 196.354 69.936C196.7 70.6836 196.975 71.5665 197.714 71.9325C197.985 72.0585 198.282 72.1229 198.581 72.1211C198.886 72.1435 199.191 72.0885 199.468 71.9614C199.741 71.8089 199.967 71.584 200.121 71.3114C200.465 70.6844 200.619 69.9705 200.564 69.2572C200.547 69.8269 200.387 70.3831 200.098 70.8744Z" fill="black"/>
<path d="M180.208 95.354C181.311 95.354 182.205 94.7482 182.205 94.0008C182.205 93.2534 181.311 92.6476 180.208 92.6476C179.106 92.6476 178.212 93.2534 178.212 94.0008C178.212 94.7482 179.106 95.354 180.208 95.354Z" fill="#575A89"/>
<path d="M115.131 169.325C152.927 169.325 183.567 138.685 183.567 100.889C183.567 63.0924 152.927 32.4524 115.131 32.4524C77.3344 32.4524 46.6943 63.0924 46.6943 100.889C46.6943 138.685 77.3344 169.325 115.131 169.325Z" fill="#0BA2E3"/>
<path d="M151.039 135.28C151.039 146.084 134.055 136.203 115.847 136.203C97.6385 136.203 79.2217 145.675 79.2217 134.872C79.2217 128.712 85.0915 120.144 93.5124 113.922C99.8569 109.232 107.648 105.874 115.474 105.874C123.522 105.874 131.406 109.509 137.695 114.501C145.633 120.794 151.039 129.251 151.039 135.28Z" fill="#444053"/>
<path d="M137.694 114.496C128.015 113.039 110.51 111.262 93.5127 113.917C99.8572 109.228 107.648 105.869 115.474 105.869C123.52 105.869 131.405 109.505 137.694 114.496Z" fill="#F6F8FB"/>
<path opacity="0.05" d="M79.2221 52.5796C79.2221 52.5796 58.6068 65.7589 58.7754 86.3741C58.944 106.989 79.2221 52.5796 79.2221 52.5796Z" fill="black"/>
<path d="M183.54 15.3577C183.54 15.3577 164.862 14.233 167.064 27.3213C167.064 27.3213 166.621 29.6328 168.724 30.6843C168.724 30.6843 168.757 29.7149 170.638 30.0432C171.309 30.1554 171.99 30.1882 172.668 30.1408C173.584 30.0785 174.455 29.7187 175.148 29.116C175.148 29.116 180.399 26.9486 182.442 18.3658C182.442 18.3658 183.953 16.4935 183.893 16.0143L180.741 17.3586C180.741 17.3586 181.816 19.6325 180.962 21.5225C180.962 21.5225 180.86 17.4429 180.255 17.5295C180.133 17.5494 178.618 18.317 178.618 18.317C178.618 18.317 180.47 22.279 179.061 25.1562C179.061 25.1562 179.591 20.2758 178.027 18.6031L175.809 19.8987C175.809 19.8987 177.974 23.9893 176.506 27.328C176.506 27.328 176.883 22.208 175.343 20.2137L173.331 21.7821C173.331 21.7821 175.365 25.815 174.125 28.5835C174.125 28.5835 173.963 22.6228 172.896 22.1725C172.896 22.1725 171.137 23.7253 170.869 24.362C170.869 24.362 172.262 27.288 171.399 28.832C171.399 28.832 170.869 24.8611 170.434 24.839C170.434 24.839 168.682 27.4699 168.497 29.2757C168.497 29.2757 168.575 26.5915 170.008 24.5883C170.008 24.5883 168.313 24.8789 167.326 25.9792C167.326 25.9792 167.599 24.118 170.432 23.956C170.432 23.956 171.88 21.9595 172.269 21.8397C172.269 21.8397 169.44 21.6024 167.725 22.3633C167.725 22.3633 169.234 20.6085 172.786 21.4049L174.782 19.7855C174.782 19.7855 171.06 19.2753 169.48 19.8388C169.48 19.8388 171.297 18.2859 175.317 19.4173L177.48 18.124C177.48 18.124 174.305 17.4407 172.413 17.6803C172.413 17.6803 174.409 16.6044 178.112 17.7713L179.665 17.0769C179.665 17.0769 177.338 16.6199 176.657 16.5489C175.976 16.478 175.94 16.2872 175.94 16.2872C177.418 16.0469 178.933 16.2228 180.317 16.7952C180.317 16.7952 183.596 15.564 183.54 15.3577Z" fill="#0BA2E3"/>
<path d="M164.382 9.539C164.382 9.539 155.953 9.02878 156.937 14.9429C156.937 14.9429 156.74 15.9878 157.687 16.4625C157.687 16.4625 157.701 16.0188 158.552 16.1741C158.855 16.2239 159.163 16.2388 159.469 16.2185C159.883 16.1889 160.277 16.0263 160.591 15.7548C160.591 15.7548 162.963 14.7743 163.885 10.8966C163.885 10.8966 164.569 10.0514 164.551 9.83404L163.127 10.4419C163.127 10.4419 163.615 11.469 163.231 12.323C163.231 12.323 163.184 10.4796 162.911 10.524C162.856 10.524 162.171 10.8789 162.171 10.8789C162.171 10.8789 163.009 12.6691 162.377 13.9691C162.377 13.9691 162.616 11.764 161.911 11.0076L160.908 11.5932C160.908 11.5932 161.887 13.4433 161.223 14.9518C161.223 14.9518 161.392 12.6381 160.698 11.7374L159.788 12.4451C159.788 12.4451 160.706 14.2663 160.147 15.5175C160.147 15.5175 160.074 12.8244 159.591 12.6203C159.591 12.6203 158.796 13.3213 158.674 13.6097C158.674 13.6097 159.304 14.9407 158.914 15.6306C158.914 15.6306 158.674 13.836 158.47 13.8293C158.47 13.8293 157.678 15.0161 157.596 15.8258C157.634 15.0723 157.869 14.3419 158.277 13.7073C157.821 13.7937 157.4 14.0119 157.066 14.3351C157.066 14.3351 157.188 13.4943 158.473 13.4211C158.473 13.4211 159.127 12.5205 159.302 12.465C159.302 12.465 158.024 12.3585 157.25 12.7024C157.25 12.7024 157.931 11.9082 159.537 12.2587L160.425 11.5289C160.425 11.5289 158.743 11.307 158.029 11.5511C158.029 11.5511 158.85 10.8501 160.667 11.3625L161.643 10.7768C161.643 10.7768 160.21 10.4685 159.353 10.5794C159.353 10.5794 160.256 10.0936 161.929 10.6216L162.628 10.3066C162.628 10.3066 161.576 10.1002 161.27 10.0692C160.964 10.0381 160.944 9.95162 160.944 9.95162C161.61 9.84084 162.293 9.91765 162.918 10.1735C162.918 10.1735 164.407 9.63217 164.382 9.539Z" fill="#0BA2E3"/>
<path opacity="0.1" d="M238.05 161.943C241.35 161.943 244.024 161.491 244.024 160.933C244.024 160.376 241.35 159.924 238.05 159.924C234.751 159.924 232.076 160.376 232.076 160.933C232.076 161.491 234.751 161.943 238.05 161.943Z" fill="#0BA2E3"/>
<path opacity="0.1" d="M10.3754 178.733C13.6748 178.733 16.3495 178.281 16.3495 177.724C16.3495 177.167 13.6748 176.715 10.3754 176.715C7.07604 176.715 4.40137 177.167 4.40137 177.724C4.40137 178.281 7.07604 178.733 10.3754 178.733Z" fill="#0BA2E3"/>
<path opacity="0.1" d="M45.0551 180C48.3545 180 51.0291 179.548 51.0291 178.991C51.0291 178.433 48.3545 177.981 45.0551 177.981C41.7557 177.981 39.0811 178.433 39.0811 178.991C39.0811 179.548 41.7557 180 45.0551 180Z" fill="#0BA2E3"/>
<path d="M224.975 173.258C229.901 173.258 233.895 172.583 233.895 171.75C233.895 170.917 229.901 170.241 224.975 170.241C220.048 170.241 216.055 170.917 216.055 171.75C216.055 172.583 220.048 173.258 224.975 173.258Z" fill="#0BA2E3"/>
<path d="M228.662 169.285C229.069 168.953 229.366 168.505 229.514 168.001C229.623 167.493 229.405 166.881 228.919 166.694C228.374 166.486 227.79 166.865 227.349 167.247C226.907 167.628 226.399 168.063 225.82 167.983C226.118 167.714 226.341 167.371 226.467 166.99C226.593 166.608 226.618 166.201 226.539 165.807C226.514 165.644 226.445 165.49 226.339 165.363C226.035 165.039 225.487 165.177 225.124 165.432C223.97 166.244 223.648 167.81 223.642 169.221C223.526 168.713 223.624 168.183 223.622 167.668C223.62 167.153 223.475 166.559 223.036 166.286C222.764 166.14 222.458 166.069 222.149 166.078C221.63 166.058 221.053 166.109 220.698 166.488C220.254 166.96 220.372 167.75 220.756 168.263C221.139 168.775 221.721 169.108 222.255 169.465C222.686 169.721 223.053 170.07 223.329 170.488C223.361 170.546 223.388 170.608 223.409 170.672H226.659C227.386 170.302 228.06 169.836 228.662 169.285Z" fill="#0BA2E3"/>
<path d="M13.1638 150.684C13.1638 150.684 14.3817 152.277 12.6003 154.677C10.819 157.078 9.35043 159.114 9.9383 160.614C9.9383 160.614 12.6247 156.146 14.8187 156.082C17.0126 156.017 15.5685 153.371 13.1638 150.684Z" fill="#0BA2E3"/>
<path opacity="0.1" d="M13.1633 150.684C13.2691 150.838 13.3527 151.006 13.4118 151.183C15.5458 153.69 16.6817 156.031 14.6319 156.088C12.7197 156.144 10.417 159.56 9.87793 160.423C9.89677 160.49 9.91899 160.556 9.94448 160.62C9.94448 160.62 12.6309 156.153 14.8249 156.088C17.0188 156.024 15.568 153.371 13.1633 150.684Z" fill="black"/>
<path d="M15.4282 152.714C15.4282 153.275 15.3639 153.73 15.2862 153.73C15.2086 153.73 15.1465 153.287 15.1465 152.714C15.1465 152.142 15.2241 152.417 15.304 152.417C15.3839 152.417 15.4282 152.153 15.4282 152.714Z" fill="#FFD037"/>
<path d="M16.1963 153.384C15.7038 153.653 15.2757 153.814 15.238 153.746C15.2003 153.677 15.5707 153.406 16.0632 153.138C16.5557 152.869 16.3605 153.065 16.3982 153.138C16.4359 153.211 16.6977 153.116 16.1963 153.384Z" fill="#FFD037"/>
<path d="M6.72594 150.684C6.72594 150.684 5.50806 152.277 7.28719 154.677C9.06631 157.078 10.5371 159.114 9.94922 160.614C9.94922 160.614 7.26057 156.146 5.06883 156.082C2.87708 156.017 4.31902 153.371 6.72594 150.684Z" fill="#0BA2E3"/>
<path opacity="0.1" d="M6.72623 150.684C6.61949 150.838 6.53579 151.006 6.47777 151.183C4.34371 153.69 3.20569 156.031 5.25767 156.088C7.16768 156.144 9.47256 159.56 10.0094 160.423C9.9913 160.49 9.96983 160.556 9.94507 160.62C9.94507 160.62 7.25641 156.153 5.06467 156.088C2.87293 156.024 4.3193 153.371 6.72623 150.684Z" fill="black"/>
<path d="M4.46094 152.714C4.46094 153.275 4.52305 153.73 4.6007 153.73C4.67834 153.73 4.74045 153.287 4.74045 152.714C4.74045 152.142 4.66281 152.417 4.58517 152.417C4.50752 152.417 4.46094 152.153 4.46094 152.714Z" fill="#FFD037"/>
<path d="M3.68218 153.384C4.17465 153.653 4.60501 153.814 4.64273 153.746C4.68044 153.677 4.30997 153.406 3.8175 153.138C3.32502 152.869 3.51802 153.065 3.48252 153.138C3.44703 153.211 3.1897 153.116 3.68218 153.384Z" fill="#FFD037"/>
<path d="M4.84961 160.412C4.84961 160.412 8.25701 160.308 9.28633 159.576C10.3157 158.844 14.5283 157.972 14.7834 159.132C15.0385 160.292 19.9034 164.966 16.0568 164.997C12.2101 165.028 7.11899 164.396 6.09411 163.773C5.06923 163.149 4.84961 160.412 4.84961 160.412Z" fill="#A8A8A8"/>
<path opacity="0.2" d="M16.1211 164.6C12.2745 164.631 7.18333 163.999 6.15844 163.376C5.37758 162.901 5.06701 161.195 4.96275 160.407H4.84961C4.84961 160.407 5.07145 163.156 6.08967 163.779C7.1079 164.403 12.2057 165.035 16.0523 165.004C17.1615 165.004 17.5453 164.598 17.5253 164.015C17.37 164.372 16.9486 164.594 16.1211 164.6Z" fill="black"/>
<path d="M90.8002 91.9155C92.1024 91.8423 98.2317 91.3809 102.125 89.1603C102.75 88.7925 103.456 88.5845 104.181 88.5547C105.419 88.5192 106.843 89.0361 105.932 91.9288C104.454 96.6606 95.8758 101.985 90.5517 101.69C85.4318 101.406 79.3579 99.3426 75.3471 92.0885C74.9628 91.3906 74.7735 90.6021 74.7992 89.8059C74.8458 88.3417 75.3782 86.5072 78.1267 88.5525C81.8402 91.3143 88.8857 91.8379 90.2988 91.9155C90.4658 91.9245 90.6332 91.9245 90.8002 91.9155Z" fill="#444053"/>
<path d="M140.047 91.9155C141.349 91.8423 147.479 91.3809 151.372 89.1603C151.997 88.7925 152.704 88.5845 153.428 88.5547C154.666 88.5192 156.09 89.0361 155.179 91.9288C153.701 96.6606 145.123 101.985 139.799 101.69C134.679 101.406 128.605 99.3426 124.594 92.0885C124.21 91.3906 124.021 90.6021 124.046 89.8059C124.093 88.3417 124.625 86.5072 127.374 88.5525C131.087 91.3143 138.133 91.8379 139.546 91.9155C139.713 91.9245 139.88 91.9245 140.047 91.9155Z" fill="#444053"/>
</g>
<defs>
<linearGradient id="paint0_linear_91_1033" x1="197.909" y1="168.15" x2="197.909" y2="58.5537" gradientUnits="userSpaceOnUse">
<stop stop-color="#808080" stop-opacity="0.25"/>
<stop offset="0.54" stop-color="#808080" stop-opacity="0.12"/>
<stop offset="1" stop-color="#808080" stop-opacity="0.1"/>
</linearGradient>
<clipPath id="clip0_91_1033">
<rect width="244.024" height="180" fill="white"/>
</clipPath>
</defs>
</svg>
