<svg width="200" height="203" viewBox="0 0 200 203" fill="none" xmlns="http://www.w3.org/2000/svg">
<g clip-path="url(#clip0_91_1205)">
<path d="M176.412 77.1392C165.213 33.1023 126.517 1.31382 81.0959 0.038805C57.0833 -0.635254 31.8154 7.32865 13.4185 35.1972C-19.468 85.0154 15.4394 119.441 39.776 135.8C51.5334 143.719 62.1276 153.241 71.2516 164.09C87.6901 183.597 119.314 207.837 156.977 169.856C184.275 142.328 183.871 106.472 176.412 77.1392Z" fill="#F2F2F2"/>
<path d="M195.563 178.538C195.563 187.218 154.744 202.618 104.392 202.618C54.0402 202.618 18.001 171.41 18.001 162.731C18.001 154.051 54.0402 171.186 104.392 171.186C154.744 171.186 195.563 169.859 195.563 178.538Z" fill="#3F3D56"/>
<path opacity="0.1" d="M195.563 178.538C195.563 187.218 154.744 202.618 104.392 202.618C54.0402 202.618 18.001 171.41 18.001 162.731C18.001 154.051 54.0402 171.186 104.392 171.186C154.744 171.186 195.563 169.859 195.563 178.538Z" fill="black"/>
<path d="M195.563 178.446C195.563 187.126 154.744 194.162 104.392 194.162C54.0402 194.162 18.001 171.41 18.001 162.731C18.001 154.051 54.0402 162.731 104.392 162.731C154.744 162.731 195.563 169.767 195.563 178.446Z" fill="#3F3D56"/>
<g opacity="0.7">
<path opacity="0.7" d="M192.545 47.3047C189.238 53.7234 178.756 61.2868 172.338 57.9799C165.919 54.6729 165.994 41.7479 169.301 35.3292C170.889 32.2475 173.636 29.9228 176.939 28.8666C180.241 27.8104 183.827 28.1091 186.909 29.6969C189.991 31.2848 192.316 34.0318 193.373 37.3338C194.43 40.6359 194.132 44.2224 192.545 47.3047V47.3047Z" fill="#0BA2E3"/>
<path opacity="0.7" d="M172.881 59.6773C172.675 59.2752 172.348 58.9477 171.946 58.7407C171.544 58.5337 171.088 58.4576 170.641 58.523L171.795 56.2826L174.035 57.4369L172.881 59.6773Z" fill="#0BA2E3"/>
<path opacity="0.7" d="M171.248 57.3583C171.505 57.7139 171.843 58.0033 172.234 58.2027C172.625 58.4022 173.058 58.5059 173.497 58.5054" stroke="#2F2E41" stroke-width="2" stroke-miterlimit="10"/>
<path opacity="0.4" d="M190.729 40.1674C191.566 38.5434 191.147 36.6617 189.794 35.9644C188.441 35.2672 186.665 36.0185 185.828 37.6425C184.992 39.2665 185.411 41.1482 186.764 41.8455C188.117 42.5427 189.893 41.7914 190.729 40.1674Z" fill="white"/>
<path opacity="0.7" d="M172.278 58.0603L162.524 82.6048" stroke="#2F2E41" stroke-width="2" stroke-miterlimit="10"/>
</g>
<path d="M194.604 86.6784C187.364 93.9826 169.888 99.7708 162.583 92.5307C155.279 85.2906 160.913 67.7638 168.153 60.4596C171.631 56.954 176.358 54.973 181.295 54.9521C186.233 54.9312 190.977 56.8722 194.484 60.3482C197.99 63.8242 199.973 68.5507 199.996 73.4883C200.018 78.4259 198.079 83.1704 194.604 86.6784Z" fill="#FF6584"/>
<path d="M162.594 95.0689C162.486 94.4343 162.182 93.8495 161.725 93.3963C161.268 92.9431 160.68 92.6443 160.045 92.5418L162.572 89.9923L165.122 92.5194L162.594 95.0689Z" fill="#FF6584"/>
<path d="M161.368 91.2197C161.566 91.813 161.901 92.3509 162.347 92.7892C162.793 93.2275 163.336 93.5537 163.933 93.7409" stroke="#2F2E41" stroke-width="2" stroke-miterlimit="10"/>
<path d="M162.096 93.1466L138.089 117.366" stroke="#2F2E41" stroke-width="2" stroke-miterlimit="10"/>
<path opacity="0.4" d="M195.193 76.2051C197.024 74.357 197.261 71.6214 195.721 70.0949C194.181 68.5683 191.447 68.829 189.616 70.677C187.784 72.5251 187.547 75.2607 189.087 76.7872C190.627 78.3137 193.361 78.0531 195.193 76.2051Z" fill="white"/>
<path d="M171.974 63.0155C169.588 73.0194 157.671 87.0517 147.667 84.666C137.663 82.2802 133.361 64.3798 135.747 54.3759C136.895 49.5747 139.903 45.426 144.109 42.8417C148.315 40.2573 153.375 39.4489 158.177 40.5941C162.979 41.7393 167.13 44.7443 169.717 48.9487C172.304 53.1531 173.116 58.2128 171.974 63.0155V63.0155Z" fill="#0BA2E3"/>
<path d="M148.997 86.8282C148.574 86.3424 148.011 86.001 147.384 85.8516C146.758 85.7023 146.101 85.7526 145.505 85.9955L146.338 82.5037L149.829 83.3364L148.997 86.8282Z" fill="#0BA2E3"/>
<path d="M145.948 84.1779C146.425 84.5819 146.991 84.867 147.6 85.0095C148.209 85.152 148.843 85.148 149.45 84.9977" stroke="#2F2E41" stroke-width="2" stroke-miterlimit="10"/>
<path opacity="0.4" d="M167.03 53.7638C167.634 51.2326 166.413 48.773 164.304 48.27C162.195 47.7669 159.995 49.4111 159.392 51.9422C158.788 54.4733 160.009 56.9329 162.118 57.4359C164.227 57.939 166.426 56.2949 167.03 53.7638Z" fill="white"/>
<path d="M147.612 85.4407L139.701 118.612" stroke="#2F2E41" stroke-width="2" stroke-miterlimit="10"/>
<g opacity="0.8">
<path opacity="0.8" d="M61.0875 150.733C55.887 155.794 43.4847 159.654 38.4242 154.454C33.3637 149.254 37.5613 136.961 42.7617 131.901C43.9983 130.697 45.4597 129.749 47.0627 129.111C48.6656 128.472 50.3785 128.156 52.1038 128.179C53.829 128.203 55.5327 128.566 57.1176 129.248C58.7025 129.93 60.1376 130.917 61.3408 132.154C62.5441 133.391 63.4921 134.852 64.1305 136.455C64.769 138.058 65.0855 139.771 65.062 141.496C65.0385 143.221 64.6754 144.925 63.9934 146.51C63.3115 148.095 62.324 149.53 61.0875 150.733V150.733Z" fill="#0BA2E3"/>
<path opacity="0.8" d="M38.4001 156.245C38.3319 155.796 38.1249 155.379 37.8082 155.054C37.4914 154.728 37.0808 154.51 36.6338 154.43L38.449 152.663L40.2153 154.478L38.4001 156.245Z" fill="#0BA2E3"/>
<path opacity="0.8" d="M37.584 153.514C37.7156 153.935 37.9454 154.319 38.2543 154.633C38.5632 154.948 38.9425 155.185 39.3609 155.325" stroke="#2F2E41" stroke-width="2" stroke-miterlimit="10"/>
<path opacity="0.4" d="M61.636 143.352C62.9517 142.072 63.1534 140.145 62.0864 139.049C61.0195 137.952 59.0879 138.101 57.7721 139.382C56.4563 140.662 56.2546 142.589 57.3216 143.685C58.3886 144.782 60.3202 144.633 61.636 143.352Z" fill="white"/>
</g>
<path d="M117.53 44.0907H121.183C123.58 44.0907 125.879 45.0429 127.574 46.7377C129.268 48.4325 130.221 50.7312 130.221 53.1281V65.8191H108.492V53.1281C108.492 51.9413 108.726 50.7661 109.18 49.6696C109.634 48.5732 110.3 47.5769 111.139 46.7377C111.978 45.8985 112.975 45.2328 114.071 44.7786C115.168 44.3245 116.343 44.0907 117.53 44.0907Z" fill="#2F2E41"/>
<path d="M107.159 100.667L104.417 106.433C104.417 106.433 102.182 114.178 104.714 115.006C107.247 115.834 107.741 107.058 107.741 107.058L109.839 101.247L107.159 100.667Z" fill="#FFB9B9"/>
<path opacity="0.1" d="M107.159 100.667L104.417 106.433C104.417 106.433 102.182 114.178 104.714 115.006C107.247 115.834 107.741 107.058 107.741 107.058L109.839 101.247L107.159 100.667Z" fill="black"/>
<path d="M107.678 91.644L104.21 103.782L109.701 106.672V92.2219L107.678 91.644Z" fill="#575A89"/>
<path d="M117.071 59.4206C117.071 59.4206 116.782 64.0446 116.204 64.0446C115.626 64.0446 114.47 69.5356 114.47 69.5356L119.383 72.7146L125.452 67.2236L123.718 62.8886C123.718 62.8886 122.851 61.1546 123.14 59.4206C123.429 57.6866 117.071 59.4206 117.071 59.4206Z" fill="#FFB9B9"/>
<path opacity="0.1" d="M117.071 59.4206C117.071 59.4206 116.782 64.0446 116.204 64.0446C115.626 64.0446 114.47 69.5356 114.47 69.5356L119.383 72.7146L125.452 67.2236L123.718 62.8886C123.718 62.8886 122.851 61.1546 123.14 59.4206C123.429 57.6866 117.071 59.4206 117.071 59.4206Z" fill="black"/>
<path d="M135.277 105.372L135.855 111.73C135.855 111.73 137.878 119.533 140.479 118.955C143.08 118.377 139.034 110.574 139.034 110.574L137.878 104.505L135.277 105.372Z" fill="#FFB9B9"/>
<path d="M122.851 168.085C122.851 168.085 124.585 178.778 123.429 180.801C122.273 182.824 124.585 183.113 124.585 183.113L131.521 181.379V178.2C131.521 178.2 129.209 167.796 129.209 167.218C129.209 166.64 122.851 168.085 122.851 168.085Z" fill="#FFB9B9"/>
<path d="M108.689 120.111C108.689 120.111 110.712 140.919 113.891 147.566C117.07 154.213 119.96 172.42 121.405 172.709C122.85 172.998 133.832 170.975 135.277 169.819C136.722 168.663 125.451 140.63 125.451 140.341C125.451 140.052 122.85 114.331 122.85 114.331L119.382 108.551L108.689 120.111Z" fill="#2F2E41"/>
<path opacity="0.1" d="M108.689 120.111C108.689 120.111 110.712 140.919 113.891 147.566C117.07 154.213 119.96 172.42 121.405 172.709C122.85 172.998 133.832 170.975 135.277 169.819C136.722 168.663 125.451 140.63 125.451 140.341C125.451 140.052 122.85 114.331 122.85 114.331L119.382 108.551L108.689 120.111Z" fill="black"/>
<path d="M125.452 180.223C125.452 180.223 122.562 178.778 121.984 179.645L119.672 183.113C119.672 183.113 109.846 187.737 113.314 188.315C116.782 188.893 123.429 188.893 124.296 188.315C125.163 187.737 134.7 182.535 134.411 182.246C134.122 181.957 131.81 175.888 131.521 176.466C131.232 177.044 127.186 181.379 125.452 180.223Z" fill="#2F2E41"/>
<path d="M76.9 155.657C76.9 155.657 70.253 160.281 67.074 159.414C63.895 158.547 67.074 165.772 67.074 165.772L72.854 168.951L74.588 167.506C74.588 167.506 80.657 159.414 83.258 159.125C85.859 158.836 76.9 155.657 76.9 155.657Z" fill="#FFB9B9"/>
<path d="M106.955 102.771L108.111 108.84L86.4364 141.786C86.4364 141.786 73.4314 154.791 74.5874 156.236C75.7434 157.681 82.9684 166.062 84.7024 164.906C86.4364 163.75 126.607 120.4 126.318 114.62C126.029 108.84 116.492 97.8575 116.492 97.8575L106.955 102.193V102.771Z" fill="#2F2E41"/>
<path d="M68.5189 161.438C68.5189 161.438 71.1199 158.548 69.6749 158.259C68.0496 157.972 66.4093 157.779 64.7619 157.681C64.1839 157.681 56.3809 153.635 55.8029 155.08C55.2249 156.525 59.2709 164.039 61.5829 164.906C63.8949 165.773 72.2759 171.842 72.2759 171.842C72.2759 171.842 76.6109 168.085 76.0329 167.218C75.4549 166.351 67.3629 164.617 68.5189 161.438Z" fill="#2F2E41"/>
<path d="M119.382 62.3105C123.213 62.3105 126.318 59.2051 126.318 55.3745C126.318 51.5438 123.213 48.4385 119.382 48.4385C115.552 48.4385 112.446 51.5438 112.446 55.3745C112.446 59.2051 115.552 62.3105 119.382 62.3105Z" fill="#FFB9B9"/>
<path d="M120.828 65.7785C120.828 65.7785 115.915 66.0675 114.47 65.2005C113.025 64.3335 109.846 77.0495 109.846 77.0495L107.823 93.8115C107.823 93.8115 107.534 95.8345 107.823 96.9905C108.112 98.1465 104.933 96.4125 106.089 99.5915C107.245 102.771 105.222 104.216 107.245 104.505C109.268 104.794 119.961 100.459 119.961 100.459L124.874 74.7375L126.319 64.3335L120.828 65.7785Z" fill="#D0CDE1"/>
<path d="M116.554 63.4308C116.554 63.4308 113.892 62.8886 113.025 63.4666C112.158 64.0446 108.979 68.3796 108.979 69.5356C108.979 70.6916 107.823 83.4076 107.823 84.5636C107.823 85.7196 106.956 91.7886 106.956 92.3666C106.956 92.9446 107.697 95.4288 107.697 95.4288L109.557 92.0776C109.557 92.0776 108.979 87.7426 111.002 80.8066C113.025 73.8706 116.554 63.4308 116.554 63.4308Z" fill="#575A89"/>
<path d="M119.382 67.8015C119.382 67.8015 123.243 61.7325 123.48 62.3105C123.717 62.8885 128.052 63.7555 128.052 63.7555C128.052 63.7555 135.855 69.2465 135.277 71.5585C134.699 73.8705 130.653 91.2105 130.653 91.2105C130.653 91.2105 126.896 100.17 129.786 106.528C132.676 112.886 129.208 115.198 129.208 115.198C129.208 115.198 126.896 116.354 127.474 117.51C128.052 118.666 120.827 123.001 119.96 119.822C119.093 116.643 108.4 97.5685 110.712 90.6325C113.024 83.6965 119.382 67.8015 119.382 67.8015Z" fill="#575A89"/>
<path d="M133.833 70.6915C133.833 70.6915 137.012 76.7605 136.434 77.6275C135.856 78.4945 138.457 83.6965 138.457 83.6965C138.277 84.1614 138.277 84.6767 138.457 85.1415C138.746 86.0085 140.48 89.7655 140.48 91.2105C140.48 92.6555 140.191 97.2795 140.48 99.3025C140.769 101.326 144.526 106.239 141.347 106.528C138.168 106.817 132.966 109.418 133.255 106.528C133.544 103.638 134.411 96.7015 133.255 95.5455C132.099 94.3895 131.232 94.3895 131.81 92.9445C132.388 91.4995 129.209 87.7425 129.209 87.7425L133.833 70.6915Z" fill="#575A89"/>
<path d="M125.178 53.6659H114.208L111.724 47.9575H127.041L125.178 53.6659Z" fill="#2F2E41"/>
<path d="M112.769 57.8428C113.062 57.7579 113.116 57.0556 112.889 56.2742C112.663 55.4927 112.242 54.9281 111.949 55.013C111.656 55.0979 111.602 55.8002 111.828 56.5817C112.054 57.3631 112.476 57.9277 112.769 57.8428Z" fill="#FFB9B9"/>
<path d="M126.7 56.5817C126.926 55.8003 126.872 55.0979 126.579 55.013C126.286 54.9281 125.865 55.4927 125.639 56.2742C125.412 57.0556 125.466 57.7579 125.759 57.8428C126.052 57.9278 126.473 57.3631 126.7 56.5817Z" fill="#FFB9B9"/>
<path d="M191.527 166.525C191.527 173.238 187.537 175.582 182.614 175.582C182.5 175.582 182.385 175.581 182.273 175.579C182.044 175.573 181.818 175.562 181.595 175.547C177.152 175.233 173.701 172.768 173.701 166.525C173.701 160.066 181.954 151.915 182.577 151.309C182.577 151.309 182.578 151.309 182.578 151.309C182.578 151.309 182.578 151.309 182.578 151.309C182.578 151.309 182.578 151.308 182.579 151.308C182.579 151.308 182.579 151.308 182.579 151.308C182.602 151.286 182.614 151.274 182.614 151.274C182.614 151.274 191.527 159.812 191.527 166.525Z" fill="#F2F2F2"/>
<path d="M182.289 174.556L185.548 170.001L182.282 175.055L182.272 175.579C182.043 175.573 181.818 175.562 181.595 175.547L181.946 168.832L181.943 168.78L181.949 168.77L181.983 168.135L178.707 163.068L181.992 167.659L182 167.795L182.266 162.721L179.462 157.484L182.3 161.829L182.577 151.309L182.578 151.274V151.308L182.532 159.604L185.324 156.315L182.52 160.318L182.447 164.862L185.054 160.502L182.436 165.53L182.394 168.056L186.179 161.988L182.38 168.937L182.289 174.556Z" fill="#3F3D56"/>
</g>
<defs>
<clipPath id="clip0_91_1205">
<rect width="200" height="202.618" fill="white"/>
</clipPath>
</defs>
</svg>
