<svg width="200" height="229" viewBox="0 0 200 229" fill="none" xmlns="http://www.w3.org/2000/svg">
<g clip-path="url(#clip0_91_1114)">
<path d="M95.9783 214.301L95.7234 208.57C95.6969 208.556 95.6704 208.542 95.6438 208.528C92.9126 207.095 89.7824 209.689 90.6547 212.648C91.4755 215.432 92.027 218.432 93.5295 220.869C94.4172 222.284 95.612 223.481 97.0253 224.372C98.4386 225.263 100.034 225.824 101.694 226.014L105.164 228.138C105.64 225.484 105.535 222.758 104.856 220.148C104.177 217.538 102.941 215.106 101.232 213.02C100.261 211.86 99.1484 210.826 97.9196 209.943C97.0886 212.134 95.9783 214.301 95.9783 214.301Z" fill="#F2F2F2"/>
<path d="M64.9112 156.14C58.2306 149.25 48.5494 145.299 38.3501 145.299L37.9567 145.3C31.2386 145.303 24.6405 143.521 18.837 140.137L18.2331 139.785L18.7195 139.283C21.3528 136.559 23.5515 133.446 25.2388 130.054C24.0405 131.171 22.6112 132.011 21.0522 132.515C19.4932 133.018 17.8425 133.173 16.2171 132.968C14.501 132.763 12.8535 132.173 11.3982 131.241C9.94285 130.309 8.7175 129.059 7.81404 127.586C4.24927 121.802 0 113.595 0 107.343C0.00554912 102.058 1.11205 96.8326 3.24897 91.9993C5.3859 87.166 8.50637 82.831 12.4115 79.2705C14.8838 77.0413 16.8585 74.316 18.2069 71.2725C19.5553 68.2289 20.2471 64.9353 20.2373 61.6064L20.2353 61.1327C20.2346 56.75 20.7702 52.3837 21.8301 48.1312L21.9377 47.7017L22.3795 47.7172C25.2287 47.8141 28.0794 47.5753 30.8728 47.0056C28.2526 46.6842 25.6894 46.0025 23.2558 44.9797L22.7805 44.7874L22.9418 44.3004C34.0614 37.4155 59.1615 40.9809 73.7304 7.6482C85.5437 -19.38 127.225 31.6412 127.225 61.1327C127.225 64.142 124.247 68.1187 126.477 70.1076C150.577 91.6085 133.948 105.415 128.705 119.308C127.461 122.604 130.158 126.223 130.158 129.789C130.158 130.394 130.143 131.018 130.113 131.645L130.066 132.609L129.263 132.074C127.673 131.033 126.199 129.824 124.867 128.469C126.249 131.649 126.901 135.099 126.773 138.565C126.646 142.03 125.743 145.423 124.131 148.494C121.606 153.261 119.162 156.673 116.869 158.636C109.523 164.923 100.053 168.166 90.3946 167.702C80.7368 167.238 71.6209 163.102 64.9112 156.14Z" fill="#E6E6E6"/>
<path d="M105.26 227.856C105.424 227.855 105.583 227.796 105.707 227.688C105.831 227.581 105.912 227.432 105.935 227.269C105.964 227.065 108.805 206.578 106.253 179.35C103.897 154.204 96.3311 117.986 73.6656 88.2397C73.6113 88.1683 73.5435 88.1082 73.466 88.063C73.3885 88.0178 73.3028 87.9884 73.2139 87.9763C73.125 87.9642 73.0346 87.9698 72.9478 87.9927C72.8611 88.0156 72.7797 88.0554 72.7083 88.1098C72.637 88.1641 72.577 88.2321 72.5319 88.3096C72.4868 88.3872 72.4575 88.4729 72.4455 88.5618C72.4336 88.6507 72.4393 88.7411 72.4623 88.8278C72.4853 88.9146 72.5252 88.9959 72.5797 89.0672C95.0494 118.556 102.555 154.509 104.894 179.478C107.431 206.547 104.612 226.875 104.583 227.077C104.57 227.174 104.577 227.272 104.605 227.366C104.632 227.46 104.68 227.547 104.744 227.621C104.808 227.694 104.888 227.754 104.977 227.794C105.066 227.835 105.162 227.856 105.26 227.856Z" fill="#3F3D56"/>
<path d="M86.7641 130.198C86.9082 130.198 87.0488 130.152 87.1655 130.068C87.2822 129.983 87.3691 129.864 87.4137 129.726C87.4583 129.589 87.4584 129.442 87.4139 129.304C87.3693 129.167 87.2826 129.048 87.1659 128.963C87.0836 128.903 78.7919 122.929 66.3959 118.39C54.9368 114.195 37.5114 110.391 19.5723 116.101C19.4868 116.128 19.4074 116.172 19.3388 116.229C19.2701 116.287 19.2135 116.358 19.1722 116.437C19.131 116.517 19.1058 116.604 19.0982 116.694C19.0906 116.783 19.1006 116.873 19.1278 116.958C19.1551 117.044 19.1989 117.123 19.2567 117.192C19.3146 117.26 19.3855 117.317 19.4652 117.358C19.5449 117.399 19.632 117.424 19.7214 117.432C19.8108 117.439 19.9008 117.429 19.9863 117.402C37.5579 111.809 54.6674 115.55 65.9265 119.672C78.1456 124.146 86.2825 130.009 86.3633 130.067C86.4797 130.152 86.62 130.198 86.7641 130.198Z" fill="#3F3D56"/>
<path d="M118.006 52.3853C118.017 52.2415 117.981 52.098 117.905 51.9755C117.829 51.853 117.716 51.7577 117.583 51.7034C117.449 51.649 117.302 51.6383 117.162 51.6728C117.022 51.7073 116.896 51.7853 116.803 51.8955C116.738 51.9733 110.182 59.8132 104.762 71.8501C99.7526 82.9774 94.7043 100.084 99.1069 118.387C99.1493 118.563 99.2598 118.715 99.4142 118.81C99.5685 118.904 99.7542 118.934 99.9302 118.891C100.106 118.849 100.258 118.738 100.353 118.584C100.447 118.43 100.476 118.244 100.434 118.068C96.122 100.139 101.085 83.3437 106.007 72.4107C111.349 60.5455 117.783 52.8519 117.847 52.7756C117.94 52.6656 117.996 52.5289 118.006 52.3853Z" fill="#3F3D56"/>
<path d="M117.082 87.5833C117.658 92.23 120.877 96.0613 125.56 96.0613C127.808 96.0613 129.965 95.1681 131.555 93.5782C133.144 91.9882 134.038 89.8318 134.038 87.5833C134.038 82.9011 130.222 79.5382 125.56 79.1053C120.613 78.646 116.342 81.6175 117.082 87.5833Z" fill="#2F2E41"/>
<path d="M129.487 224.122L132.715 224.121L134.251 211.668L129.486 211.669L129.487 224.122Z" fill="#FFB6B6"/>
<path d="M129.373 227.489L139.301 227.489V227.364C139.301 226.339 138.894 225.356 138.169 224.631C137.445 223.907 136.462 223.499 135.437 223.499H135.437L133.623 222.124L130.24 223.5L129.373 223.5L129.373 227.489Z" fill="#2F2E41"/>
<path d="M116.769 224.122L119.998 224.121L121.533 211.668L116.769 211.669L116.769 224.122Z" fill="#FFB6B6"/>
<path d="M116.656 227.489L126.584 227.489V227.364C126.584 226.339 126.177 225.356 125.453 224.631C124.728 223.907 123.745 223.499 122.72 223.499H122.72L120.906 222.124L117.523 223.5L116.656 223.5L116.656 227.489Z" fill="#2F2E41"/>
<path d="M140.597 146.127L142.88 153.953L140.191 187.097C140.191 187.097 141.575 189.169 140.597 189.169C139.619 189.169 138.365 189.629 139.155 190.866C139.945 192.104 137.244 196.547 137.244 196.547L133.423 220.146L128.555 220.074C128.555 220.074 126.08 218.696 127.469 217.301C128.858 215.907 129.837 215.907 128.532 214.603C127.228 213.299 127.228 213.692 127.228 212.68C127.228 211.668 125.921 199.306 129.02 194.563L128.086 175.229L125.887 194.194L121.359 219.494L116.669 219.456C116.669 219.456 114.503 217.368 114.507 215.822C114.511 214.277 115.845 214.149 114.852 213.235C113.859 212.32 113.859 198.279 116.794 190.473C116.794 190.473 118.454 186.112 116.79 184.618C115.126 183.124 116.788 181.414 116.788 181.414C116.788 181.414 119.423 180.461 116.785 177.717C114.148 174.972 116.771 155.56 116.771 155.56C116.771 155.56 113.888 147.724 116.808 144.643C119.728 141.562 140.597 146.127 140.597 146.127Z" fill="#2F2E41"/>
<path d="M99.9432 159.61L104.016 149.768L107.224 151.551L105.287 161.562C105.481 162.197 105.494 162.873 105.325 163.514C105.156 164.155 104.811 164.737 104.33 165.193C103.849 165.65 103.25 165.963 102.6 166.097C101.951 166.232 101.276 166.182 100.653 165.955C100.03 165.727 99.4832 165.33 99.0734 164.808C98.6636 164.287 98.4074 163.661 98.3337 163.002C98.2599 162.343 98.3714 161.676 98.6558 161.077C98.9401 160.478 99.386 159.97 99.9432 159.61Z" fill="#FFB6B6"/>
<path d="M168.28 81.7851L162.084 90.4482L159.362 87.985L163.518 78.6729C163.473 78.0111 163.613 77.3498 163.923 76.7634C164.233 76.177 164.7 75.6886 165.272 75.3532C165.845 75.0178 166.499 74.8487 167.162 74.8648C167.825 74.881 168.471 75.0818 169.026 75.4447C169.581 75.8076 170.024 76.3181 170.305 76.919C170.586 77.5198 170.694 78.1871 170.616 78.8459C170.539 79.5046 170.279 80.1287 169.866 80.6479C169.454 81.1672 168.904 81.561 168.28 81.7851Z" fill="#FFB6B6"/>
<path d="M141.212 146.929C145.231 153.163 125.029 161.075 117.277 157.898C115.919 157.342 111.25 155.505 114.442 152.959C117.633 150.412 114.072 150.053 113.987 148.395C113.931 147.287 114.789 144.856 113.894 144.96C112.999 145.064 111.951 143.531 113.901 142.872C115.851 142.212 113.921 141.611 113.939 140.984C114.125 134.151 119.368 123.283 119.368 123.283L109.921 147.431C109.921 147.431 109.991 151.609 108.786 150.332C107.581 149.055 107.669 153.187 107.669 153.187C107.669 153.187 105.878 154.437 106.908 155.133C107.938 155.829 105.799 157.968 105.799 157.968L100.808 157.612C100.808 157.612 100.886 153.904 101.738 153.084C102.59 152.264 102.172 150.974 102.172 150.974C102.172 150.974 104.39 149.01 102.903 147.415C100.99 145.364 107.965 110.721 110.372 111.064C110.712 109.408 111.504 107.878 112.66 106.644C113.815 105.409 115.29 104.518 116.92 104.07L122.311 102.585L123.268 98.7874H130.858L132.181 101.283L137.951 103.887C139.038 102.353 139.851 100.737 144.302 100.213C144.302 100.213 156.296 89.3006 155.71 88.4485C155.125 87.5965 156.984 85.6015 156.984 85.6015C156.984 85.6015 158.572 85.0819 157.676 84.8044C156.78 84.5269 158.473 83.8854 158.473 83.8854C158.473 83.8854 160.042 83.4733 159.302 82.9306C158.562 82.3879 161.771 82.0314 161.771 82.0314L165.934 85.428L165.092 86.8548C165.092 86.8548 165.606 88.7975 164.936 88.0883C164.266 87.379 164.14 89.4373 164.14 89.4373C164.14 89.4373 163.798 91.6911 161.771 92.3702C159.743 93.0492 158.206 99.5004 158.206 99.5004C153.424 105.718 147.781 110.568 141.093 113.761C143.7 116.752 141.212 146.929 141.212 146.929Z" fill="#0BA2E3"/>
<path d="M126.497 96.5648C130.649 96.5648 134.015 93.1989 134.015 89.0469C134.015 84.8948 130.649 81.5289 126.497 81.5289C122.345 81.5289 118.979 84.8948 118.979 89.0469C118.979 93.1989 122.345 96.5648 126.497 96.5648Z" fill="#FFB6B6"/>
<path d="M118.712 89.8658C118.95 91.4995 120.343 93.7787 120.017 93.7787C119.691 93.7787 117.372 87.0442 119.691 86.6051C121.372 86.2865 121.748 86.5659 123.32 85.8844L123.098 86.0931C124.138 86.8496 125.586 86.3833 126.773 85.891C127.963 85.4018 129.408 84.9356 130.451 85.6888C131.107 86.1616 131.384 86.9833 131.791 87.6811C132.199 88.3822 132.952 89.0441 133.728 88.8289C134.351 88.6561 134.71 87.9583 134.706 87.3126C134.703 86.667 133.862 86.0528 134.146 85.4736C134.985 83.757 134.23 82.5869 132.401 81.7791C131.736 81.6781 131.071 81.5748 130.405 81.4694C130.754 80.9866 131.177 80.5618 131.658 80.2107C131.454 79.6897 131.103 79.2396 130.647 78.9162C130.115 78.5999 129.457 78.6227 128.84 78.6553C127.464 78.7271 126.089 78.7988 124.715 78.8705C123.698 78.9227 122.645 78.9847 121.735 79.4509C120.6 80.0346 119.857 81.1726 119.316 82.3302C118.103 84.9323 118.295 87.0257 118.712 89.8658Z" fill="#2F2E41"/>
<path d="M87.4381 228.336L161.376 228.437C161.479 228.437 161.578 228.396 161.65 228.323C161.723 228.25 161.764 228.151 161.764 228.048C161.764 227.945 161.723 227.847 161.65 227.774C161.578 227.701 161.479 227.66 161.376 227.66L87.4381 227.56C87.3351 227.56 87.2363 227.601 87.1635 227.674C87.0907 227.746 87.0498 227.845 87.0498 227.948C87.0498 228.051 87.0907 228.15 87.1635 228.223C87.2363 228.296 87.3351 228.336 87.4381 228.336Z" fill="#CACACA"/>
<path d="M60.6968 194.493C60.8331 193.556 59.8519 192.637 58.5052 192.441C57.1586 192.246 55.9563 192.846 55.82 193.783C55.6837 194.72 56.665 195.638 58.0116 195.834C59.3583 196.03 60.5605 195.429 60.6968 194.493Z" fill="#E6E6E6"/>
<path d="M76.73 192.928C76.8663 191.991 75.8851 191.073 74.5384 190.877C73.1917 190.681 71.9895 191.282 71.8532 192.218C71.7169 193.155 72.6981 194.074 74.0448 194.269C75.3915 194.465 76.5937 193.865 76.73 192.928Z" fill="#3F3D56"/>
<path d="M56.3062 181.512C56.4425 180.575 55.4613 179.657 54.1146 179.461C52.7679 179.265 51.5657 179.866 51.4294 180.803C51.2931 181.739 52.2743 182.658 53.621 182.854C54.9677 183.049 56.1698 182.449 56.3062 181.512Z" fill="#FF6584"/>
<path d="M49.3395 176.195C49.346 175.335 48.8663 174.634 48.268 174.63C47.6697 174.625 47.1794 175.319 47.1729 176.179C47.1664 177.039 47.6461 177.74 48.2444 177.744C48.8427 177.749 49.333 177.055 49.3395 176.195Z" fill="#E6E6E6"/>
<path d="M46.9762 166.292C46.9827 165.432 46.503 164.731 45.9047 164.726C45.3064 164.722 44.8161 165.415 44.8096 166.275C44.8031 167.135 45.2829 167.836 45.8812 167.841C46.4794 167.845 46.9697 167.152 46.9762 166.292Z" fill="#3F3D56"/>
<path d="M65.3493 183.721C65.3558 182.861 64.876 182.16 64.2777 182.156C63.6795 182.151 63.1892 182.845 63.1827 183.705C63.1762 184.565 63.6559 185.266 64.2542 185.27C64.8525 185.275 65.3428 184.581 65.3493 183.721Z" fill="#E6E6E6"/>
<path d="M57.6012 187.59C57.6077 186.73 57.128 186.029 56.5297 186.024C55.9314 186.02 55.4411 186.713 55.4346 187.573C55.4281 188.433 55.9078 189.134 56.5061 189.139C57.1044 189.143 57.5947 188.45 57.6012 187.59Z" fill="#FF6584"/>
<path d="M68.3873 194.74C68.3939 193.88 67.9141 193.179 67.3158 193.174C66.7176 193.17 66.2273 193.863 66.2208 194.723C66.2143 195.583 66.694 196.284 67.2923 196.289C67.8906 196.293 68.3808 195.6 68.3873 194.74Z" fill="#3F3D56"/>
<path d="M183.954 144.277C184.09 143.34 183.109 142.422 181.762 142.226C180.415 142.03 179.213 142.63 179.077 143.567C178.941 144.504 179.922 145.422 181.268 145.618C182.615 145.814 183.817 145.214 183.954 144.277Z" fill="#E6E6E6"/>
<path d="M199.988 142.712C200.124 141.775 199.143 140.857 197.796 140.661C196.45 140.465 195.247 141.066 195.111 142.003C194.975 142.94 195.956 143.858 197.303 144.054C198.649 144.25 199.852 143.649 199.988 142.712Z" fill="#3F3D56"/>
<path d="M179.563 131.296C179.699 130.359 178.718 129.441 177.371 129.245C176.025 129.049 174.823 129.65 174.686 130.587C174.55 131.524 175.531 132.442 176.878 132.638C178.224 132.834 179.427 132.233 179.563 131.296Z" fill="#FF6584"/>
<path d="M172.596 125.979C172.603 125.119 172.123 124.418 171.525 124.414C170.927 124.409 170.436 125.103 170.43 125.963C170.423 126.823 170.903 127.524 171.501 127.528C172.1 127.533 172.59 126.839 172.596 125.979Z" fill="#E6E6E6"/>
<path d="M170.233 116.076C170.24 115.216 169.76 114.515 169.162 114.51C168.563 114.506 168.073 115.199 168.066 116.059C168.06 116.919 168.54 117.62 169.138 117.625C169.736 117.629 170.227 116.936 170.233 116.076Z" fill="#3F3D56"/>
<path d="M188.606 133.505C188.613 132.645 188.133 131.944 187.535 131.94C186.936 131.935 186.446 132.629 186.44 133.489C186.433 134.349 186.913 135.05 187.511 135.054C188.109 135.059 188.6 134.365 188.606 133.505Z" fill="#E6E6E6"/>
<path d="M180.858 137.374C180.865 136.514 180.385 135.813 179.787 135.808C179.188 135.804 178.698 136.497 178.691 137.357C178.685 138.217 179.165 138.918 179.763 138.923C180.361 138.927 180.852 138.234 180.858 137.374Z" fill="#FF6584"/>
<path d="M191.644 144.524C191.651 143.664 191.171 142.963 190.573 142.958C189.974 142.954 189.484 143.647 189.478 144.507C189.471 145.367 189.951 146.068 190.549 146.073C191.147 146.077 191.638 145.384 191.644 144.524Z" fill="#3F3D56"/>
<path d="M124.282 51.3449C124.418 50.4081 123.437 49.4899 122.09 49.2939C120.743 49.098 119.541 49.6986 119.405 50.6354C119.269 51.5722 120.25 52.4905 121.597 52.6864C122.943 52.8824 124.145 52.2818 124.282 51.3449Z" fill="white"/>
<path d="M140.315 49.7804C140.451 48.8436 139.47 47.9253 138.123 47.7294C136.777 47.5334 135.575 48.134 135.438 49.0708C135.302 50.0077 136.283 50.9259 137.63 51.1219C138.976 51.3178 140.179 50.7172 140.315 49.7804Z" fill="#3F3D56"/>
<path d="M119.891 38.3645C120.027 37.4277 119.046 36.5094 117.7 36.3134C116.353 36.1175 115.151 36.7181 115.014 37.6549C114.878 38.5917 115.859 39.51 117.206 39.706C118.553 39.9019 119.755 39.3013 119.891 38.3645Z" fill="#FF6584"/>
<path d="M112.924 33.0474C112.931 32.1874 112.451 31.4865 111.853 31.482C111.255 31.4775 110.764 32.171 110.758 33.031C110.751 33.8911 111.231 34.5919 111.829 34.5964C112.428 34.601 112.918 33.9074 112.924 33.0474Z" fill="#E6E6E6"/>
<path d="M110.561 23.144C110.568 22.2839 110.088 21.583 109.49 21.5785C108.891 21.574 108.401 22.2675 108.395 23.1276C108.388 23.9876 108.868 24.6885 109.466 24.693C110.064 24.6975 110.555 24.004 110.561 23.144Z" fill="#3F3D56"/>
<path d="M128.934 40.5734C128.941 39.7134 128.461 39.0125 127.863 39.008C127.264 39.0035 126.774 39.697 126.768 40.557C126.761 41.4171 127.241 42.1179 127.839 42.1224C128.437 42.127 128.928 41.4334 128.934 40.5734Z" fill="#E6E6E6"/>
<path d="M121.186 44.4419C121.193 43.5819 120.713 42.881 120.115 42.8765C119.516 42.872 119.026 43.5655 119.02 44.4255C119.013 45.2856 119.493 45.9865 120.091 45.991C120.689 45.9955 121.18 45.302 121.186 44.4419Z" fill="#FF6584"/>
<path d="M131.972 51.5921C131.979 50.732 131.499 50.0312 130.901 50.0267C130.302 50.0221 129.812 50.7157 129.806 51.5757C129.799 52.4357 130.279 53.1366 130.877 53.1411C131.476 53.1457 131.966 52.4521 131.972 51.5921Z" fill="#3F3D56"/>
</g>
<defs>
<clipPath id="clip0_91_1114">
<rect width="200" height="228.437" fill="white"/>
</clipPath>
</defs>
</svg>
